<svg xmlns="http://www.w3.org/2000/svg" xmlns:xlink="http://www.w3.org/1999/xlink" width="609.44" height="332.448" viewBox="0 0 609.44 332.448"><defs><style>.a{fill:#06151a;}.a,.h{opacity:0.3;}.b{fill:#07114b;}.b,.c,.d{opacity:0.996;}.c{fill:url(#c);}.d{fill:none;}.e{fill:#b1f1fb;}.f{fill:#29d4fa;}.g,.h{fill:#9aefff;}.i,.j{stroke:none;}.j{fill:#26d4fa;}.k{filter:url(#v);}.l{filter:url(#t);}.m{filter:url(#r);}.n{filter:url(#p);}.o{filter:url(#n);}.p{filter:url(#l);}.q{filter:url(#j);}.r{filter:url(#h);}.s{filter:url(#f);}.t{filter:url(#d);}.u{filter:url(#a);}</style><filter id="a" x="0" y="17.057" width="603.26" height="315.391" filterUnits="userSpaceOnUse"><feOffset input="SourceAlpha"/><feGaussianBlur stdDeviation="6" result="b"/><feFlood flood-color="#26d4fa"/><feComposite operator="in" in2="b"/><feComposite in="SourceGraphic"/></filter><linearGradient id="c" x1="0.5" y1="0.02" x2="0.5" y2="0.978" gradientUnits="objectBoundingBox"><stop offset="0" stop-color="#2fdaff" stop-opacity="0"/><stop offset="0.517" stop-color="#2fdaff"/><stop offset="1" stop-color="#2fdaff" stop-opacity="0"/></linearGradient><filter id="d" x="8.733" y="47.168" width="596.203" height="230.844" filterUnits="userSpaceOnUse"><feOffset input="SourceAlpha"/><feGaussianBlur stdDeviation="6" result="e"/><feFlood flood-color="#26d4fa"/><feComposite operator="in" in2="e"/><feComposite in="SourceGraphic"/></filter><filter id="f" x="4.228" y="2.973" width="605.212" height="319.234" filterUnits="userSpaceOnUse"><feOffset input="SourceAlpha"/><feGaussianBlur stdDeviation="6" result="g"/><feFlood flood-color="#26d4fa"/><feComposite operator="in" in2="g"/><feComposite in="SourceGraphic"/></filter><filter id="h" x="164.419" y="20.205" width="282.38" height="34.908" filterUnits="userSpaceOnUse"><feOffset input="SourceAlpha"/><feGaussianBlur stdDeviation="3" result="i"/><feFlood flood-color="#29d4fa" flood-opacity="0.502"/><feComposite operator="in" in2="i"/><feComposite in="SourceGraphic"/></filter><filter id="j" x="179.645" y="0" width="87.065" height="60.334" filterUnits="userSpaceOnUse"><feOffset input="SourceAlpha"/><feGaussianBlur stdDeviation="8" result="k"/><feFlood flood-color="#40ddff"/><feComposite operator="in" in2="k"/><feComposite in="SourceGraphic"/></filter><filter id="l" x="342.733" y="0" width="87.065" height="60.334" filterUnits="userSpaceOnUse"><feOffset input="SourceAlpha"/><feGaussianBlur stdDeviation="8" result="m"/><feFlood flood-color="#40ddff"/><feComposite operator="in" in2="m"/><feComposite in="SourceGraphic"/></filter><filter id="n" x="264.97" y="19.723" width="81.233" height="29.682" filterUnits="userSpaceOnUse"><feOffset input="SourceAlpha"/><feGaussianBlur stdDeviation="4" result="o"/><feFlood flood-color="#40ddff"/><feComposite operator="in" in2="o"/><feComposite in="SourceGraphic"/></filter><filter id="p" x="91.324" y="275.77" width="47.733" height="36.402" filterUnits="userSpaceOnUse"><feOffset input="SourceAlpha"/><feGaussianBlur stdDeviation="4" result="q"/><feFlood flood-color="#65e4ff"/><feComposite operator="in" in2="q"/><feComposite in="SourceGraphic"/></filter><filter id="r" x="85.324" y="288.207" width="47.733" height="36.402" filterUnits="userSpaceOnUse"><feOffset input="SourceAlpha"/><feGaussianBlur stdDeviation="4" result="s"/><feFlood flood-color="#65e4ff"/><feComposite operator="in" in2="s"/><feComposite in="SourceGraphic"/></filter><filter id="t" x="478.542" y="276.77" width="47.733" height="36.402" filterUnits="userSpaceOnUse"><feOffset input="SourceAlpha"/><feGaussianBlur stdDeviation="4" result="u"/><feFlood flood-color="#65e4ff"/><feComposite operator="in" in2="u"/><feComposite in="SourceGraphic"/></filter><filter id="v" x="469.542" y="286.172" width="47.733" height="36.402" filterUnits="userSpaceOnUse"><feOffset input="SourceAlpha"/><feGaussianBlur stdDeviation="4" result="w"/><feFlood flood-color="#65e4ff"/><feComposite operator="in" in2="w"/><feComposite in="SourceGraphic"/></filter></defs><g transform="translate(-1268.091 -397.813)"><g class="u" transform="matrix(1, 0, 0, 1, 1268.09, 397.81)"><g class="a" transform="translate(18 36.45)"><path class="i" d="M 74.86552429199219 276.9999694824219 L 16.46261596679688 276.9999694824219 L 0.999984085559845 259.7738037109375 L 0.999984085559845 230.956298828125 L 9.85027027130127 216.6565551757812 L 9.999983787536621 216.4147033691406 L 9.999983787536621 216.1302642822266 L 9.999983787536621 64.17191314697266 L 9.999983787536621 63.92791366577148 L 9.887626647949219 63.71134185791016 L 0.999984085559845 46.58407592773438 L 0.999984085559845 18.95479965209961 L 16.53521537780762 0.9999836087226868 L 74.72453308105469 0.9999836087226868 L 87.52719879150391 11.76534080505371 L 87.80776977539062 12.00126934051514 L 88.17433929443359 11.99998378753662 L 478.1912841796875 10.60926914215088 L 478.5476379394531 10.60798358917236 L 478.8228454589844 10.38162612915039 L 491.9219665527344 -0.3907306790351868 L 552.3680419921875 -0.3907306790351868 L 566.26025390625 15.60249137878418 L 566.26025390625 47.95012664794922 L 557.4251708984375 61.36155319213867 L 557.26025390625 61.61191177368164 L 557.26025390625 61.91169738769531 L 557.26025390625 214.8221282958984 L 557.26025390625 215.0943450927734 L 557.3982543945312 215.3289794921875 L 566.26025390625 230.400146484375 L 566.26025390625 260.6055908203125 L 552.2473754882812 275.6092834472656 L 492.1461181640625 275.6092834472656 L 475.5523376464844 264.77197265625 L 475.3014831542969 264.6081848144531 L 475.0019226074219 264.6092834472656 L 92.79234313964844 265.9999694824219 L 92.50812530517578 266.0010681152344 L 92.26691436767578 266.1513977050781 L 74.86552429199219 276.9999694824219 Z"/><path class="j" d="M 492.2803649902344 0.609283447265625 L 478.9075622558594 11.606689453125 L 478.19482421875 11.60928344726562 L 87.44476318359375 13.0025634765625 L 74.35992431640625 1.999969482421875 L 16.99237060546875 1.999969482421875 L 2 19.327392578125 L 2 46.340087890625 L 11 63.683837890625 L 11 216.6991271972656 L 2 231.24072265625 L 2 259.3907775878906 L 16.9088134765625 275.9999694824219 L 74.57931518554688 275.9999694824219 L 92.22027587890625 265.0020446777344 L 475.5974731445312 263.6071166992188 L 492.4436645507812 274.6092834472656 L 551.8130493164062 274.6092834472656 L 565.26025390625 260.2112731933594 L 565.26025390625 230.6725158691406 L 556.26025390625 215.3665466308594 L 556.26025390625 61.3121337890625 L 565.26025390625 47.6502685546875 L 565.26025390625 15.97622680664062 L 551.9120483398438 0.609283447265625 L 492.2803649902344 0.609283447265625 M 491.5636291503906 -1.390716552734375 L 552.823974609375 -1.390716552734375 L 567.26025390625 15.22885131835938 L 567.26025390625 48.24984741210938 L 558.26025390625 61.91169738769531 L 558.26025390625 214.8221282958984 L 567.26025390625 230.1279907226562 L 567.26025390625 260.9999694824219 L 552.6817626953125 276.6092834472656 L 491.8484191894531 276.6092834472656 L 475.0055541992188 265.6092834472656 L 92.79598999023438 266.9999694824219 L 75.15170288085938 277.9999694824219 L 16.0164794921875 277.9999694824219 L 0 260.1567687988281 L 0 230.6718444824219 L 9 216.1302642822266 L 9 64.17184448242188 L 0 46.828125 L 0 18.582275390625 L 16.078125 -3.0517578125e-05 L 75.08905029296875 -3.0517578125e-05 L 88.1707763671875 10.99996948242188 L 478.1876831054688 9.609283447265625 L 491.5636291503906 -1.390716552734375 Z"/></g></g><path class="b" d="M16.078-1H75.089L88.171,11,477.139,8.766l13.376-11h61.26l14.436,16.62V47.407l-9,13.662v152.91l9,15.306v30.872l-14.578,15.609H490.8l-16.843-11L92.8,267,75.152,278H16.016L0,260.157V230.672L9,216.13V64.172L0,46.828V18.582Z" transform="translate(1291 422.572)"/><g class="t" transform="matrix(1, 0, 0, 1, 1268.09, 397.81)"><path class="c" d="M-92.675,43.732l10.969,19.593v159.5l-9.478,11.734,549.876-.021-11.623-12.506V61.472l10.291-15.844-550.035-1.9M-96.921,41.7l559.2,1.966L449.057,62.327v158.91l14.225,15.306h-559.2L-83.7,222V64.044Z" transform="translate(123.65 23.47)"/></g><g class="s" transform="matrix(1, 0, 0, 1, 1268.09, 397.81)"><g class="d" transform="translate(23.73 24.71)"><path class="i" d="M16.078-2H75.089L88.171,11,477.139,8.766l13.376-11h61.26l14.436,16.62V47.407l-9,13.662v152.91l9,15.306v32.872l-14.578,15.609H490.8l-16.843-11L92.8,267,75.152,278H16.016L0,260.157V230.672L9,216.13V64.172L0,46.828V18.582Z"/><path class="j" d="M 491.2321166992188 -0.2340087890625 L 477.8612976074219 10.7618408203125 L 477.1510009765625 10.7659912109375 L 87.35073852539062 13.00469970703125 L 74.26425170898438 0 L 17.0537109375 0 L 2 19.27090454101562 L 2 46.34010314941406 L 11 63.68385314941406 L 11 216.6990661621094 L 2 231.2407379150391 L 2 259.3907165527344 L 16.9088134765625 276 L 74.57925415039062 276 L 92.2230224609375 265.0003662109375 L 92.79473876953125 265 L 474.552001953125 264.765625 L 491.3954772949219 275.7659912109375 L 550.7648315429688 275.7659912109375 L 564.2120361328125 261.3679809570312 L 564.2120361328125 229.8292388916016 L 555.2120361328125 214.5232849121094 L 555.2120361328125 60.46885681152344 L 564.2120361328125 46.80706787109375 L 564.2120361328125 15.13296508789062 L 550.86376953125 -0.2340087890625 L 491.2321166992188 -0.2340087890625 M 490.515380859375 -2.2340087890625 L 551.7757568359375 -2.2340087890625 L 566.2120361328125 14.38555908203125 L 566.2120361328125 47.40663146972656 L 557.2120361328125 61.06842041015625 L 557.2120361328125 213.9788513183594 L 566.2120361328125 229.2847137451172 L 566.2120361328125 262.1567077636719 L 551.633544921875 277.7659912109375 L 490.8002319335938 277.7659912109375 L 473.9573059082031 266.7659912109375 L 92.79595947265625 267 L 75.15167236328125 278 L 16.01641845703125 278 L 0 260.1567077636719 L 0 230.6718444824219 L 9 216.1302185058594 L 9 64.17185974121094 L 0 46.82814025878906 L 0 18.582275390625 L 16.07806396484375 -2 L 75.08901977539062 -2 L 88.17074584960938 11 L 477.1395263671875 8.7659912109375 L 490.515380859375 -2.2340087890625 Z"/></g></g><g transform="translate(-0.49)"><path class="e" d="M107,0H0V3H115Z" transform="translate(1700.221 427.02)"/><path class="e" d="M8,0H115V3H0Z" transform="translate(1333.49 427.02)"/><g transform="translate(2.947)"><g class="r" transform="matrix(1, 0, 0, 1, 1265.63, 397.81)"><path class="f" d="M9346.832,19050.893h45.743l6.924,8.166h44.714l5.849-5.715h57.528l5.639,5.715H9558.4l6.376-8.166h46.433l-17.84,16.908h-78.254l-7.528-8.742h-57.528l-5.849,8.742h-79.308Z" transform="translate(-9173.41 -19021.69)"/></g><g class="q" transform="matrix(1, 0, 0, 1, 1265.63, 397.81)"><path class="e" d="M9393.058,19042.918h25.966l13.1,12.334h-26.464Z" transform="translate(-9189.41 -19018.92)"/></g><g class="p" transform="matrix(1, 0, 0, 1, 1265.63, 397.81)"><path class="e" d="M9432.122,19042.918h-25.966l-13.1,12.334h26.464Z" transform="translate(-9026.32 -19018.92)"/></g><g class="o" transform="matrix(1, 0, 0, 1, 1265.63, 397.81)"><path class="e" d="M9450.383,19059.658l4.546-5.682h48.63l4.058,5.682Z" transform="translate(-9173.41 -19022.25)"/></g></g></g><g class="n" transform="matrix(1, 0, 0, 1, 1268.09, 397.81)"><path class="g" d="M9381.965,19665l-2.141-2.1,11.059-7.3h9.675v3h-8.415Z" transform="translate(-9275 -19366.33)"/></g><g class="m" transform="matrix(1, 0, 0, 1, 1268.09, 397.81)"><path class="h" d="M9381.965,19665l-2.141-2.1,11.059-7.3h9.675v3h-8.415Z" transform="translate(-9281 -19353.89)"/></g><g class="l" transform="matrix(1, 0, 0, 1, 1268.09, 397.81)"><path class="g" d="M9398.418,19665l2.141-2.1-11.059-7.3h-9.675v3h8.415Z" transform="translate(-8887.78 -19365.33)"/></g><g class="k" transform="matrix(1, 0, 0, 1, 1268.09, 397.81)"><path class="h" d="M9398.418,19665l2.141-2.1-11.059-7.3h-9.675v3h8.415Z" transform="translate(-8896.78 -19355.92)"/></g></g></svg>