<svg xmlns="http://www.w3.org/2000/svg" xmlns:xlink="http://www.w3.org/1999/xlink" width="18" height="18" viewBox="0 0 18 18"><defs><style>.a{fill:none;}.b{fill:url(#a);}</style><linearGradient id="a" x1="0.5" y1="0.389" x2="0.5" y2="1" gradientUnits="objectBoundingBox"><stop offset="0" stop-color="#00e0ff"/><stop offset="1" stop-color="#29a4ff"/></linearGradient></defs><g transform="translate(-668 -238)"><rect class="a" width="18" height="18" transform="translate(668 238)"/><path class="b" d="M13.378,3.042a4.717,4.717,0,0,0-3.3-1.387h-.016A4.753,4.753,0,0,0,6.084,8.933,4.624,4.624,0,0,0,7.52,10.386a6.84,6.84,0,0,0-2.376,1.568A7.154,7.154,0,0,0,3.131,16.9a.607.607,0,0,0,.611.594.618.618,0,0,0,.611-.594A5.711,5.711,0,0,1,9.9,11.142h.182a4.731,4.731,0,0,0,4.7-4.736A4.935,4.935,0,0,0,13.378,3.042Zm.166,3.35a3.52,3.52,0,0,1-3.416,3.515H9.88A3.492,3.492,0,0,1,6.562,6.392a3.491,3.491,0,1,1,6.981-.082v.082Zm-.452,8.868a8.1,8.1,0,0,0,.091.833,9.029,9.029,0,0,0-1.079.851l-.42-.541a.8.8,0,0,0,.153-.47V14.339h-.6v-.717H12.6V15.6l.489-.336Zm-.936-3.471c.294.386.548.73.751,1.025l-.73.425q-.278-.486-.689-1.082Zm2.633,5.326q-.1-.481-.192-.806.454.016.732.016a.364.364,0,0,0,.256-.085.452.452,0,0,0,.11-.3c.012-.148.03-.587.057-1.331H14.545a3.885,3.885,0,0,1-.949,2.62,8.479,8.479,0,0,0-.717-.539,2.75,2.75,0,0,0,.587-.849,2.9,2.9,0,0,0,.24-.886c.027-.285.043-.822.046-1.607h-.641v-.735h1.46c-.062-.2-.141-.429-.233-.7l.854-.142.235.838h1.42v.732H14.572l-.009.523h2.02q-.048,1.992-.085,2.355a1.108,1.108,0,0,1-.2.573.7.7,0,0,1-.409.262,7.329,7.329,0,0,1-1.1.064Z" transform="translate(666.869 237.424)"/></g></svg>