<svg xmlns="http://www.w3.org/2000/svg" xmlns:xlink="http://www.w3.org/1999/xlink" width="18" height="18" viewBox="0 0 18 18"><defs><style>.a{fill:none;}.b{fill:url(#a);}</style><linearGradient id="a" x1="0.5" y1="0.389" x2="0.5" y2="1" gradientUnits="objectBoundingBox"><stop offset="0" stop-color="#00e0ff"/><stop offset="1" stop-color="#29a4ff"/></linearGradient></defs><g transform="translate(-695 -240)"><rect class="a" width="18" height="18" transform="translate(695 240)"/><path class="b" d="M12.331,10.754a6.577,6.577,0,0,0-1.21-.612,4.115,4.115,0,1,0-4.6,0,6.505,6.505,0,0,0-4.2,6.073.561.561,0,0,0,1.122,0,5.373,5.373,0,0,1,5.377-5.369h.013a5.389,5.389,0,0,1,2.541.638,7.163,7.163,0,0,1,.964-.73Zm-3.5-1.029H8.813a3,3,0,1,1,.013,0Zm9.388,3.265a.461.461,0,0,0-.373-.314l-2.407-.35-1.077-2.181a.48.48,0,0,0-.828,0l-1.077,2.181-2.407.35a.462.462,0,0,0-.256.789l1.741,1.7-.41,2.4a.46.46,0,0,0,.184.452.465.465,0,0,0,.487.036l2.153-1.133L16.1,18.047a.463.463,0,0,0,.672-.487l-.416-2.4,1.743-1.7A.463.463,0,0,0,18.214,12.99Zm-2.678,1.679a.465.465,0,0,0-.134.408l.294,1.715-1.54-.809a.46.46,0,0,0-.431,0l-1.54.809.294-1.715a.458.458,0,0,0-.134-.408L11.1,13.455l1.72-.25a.459.459,0,0,0,.348-.252l.77-1.56.77,1.56a.462.462,0,0,0,.348.252l1.72.25-1.244,1.214Zm0,0" transform="translate(694.164 238.876)"/></g></svg>