<svg xmlns="http://www.w3.org/2000/svg" xmlns:xlink="http://www.w3.org/1999/xlink" width="16" height="16" viewBox="0 0 16 16"><defs><style>.a{fill:none;}.b{fill:url(#a);}</style><linearGradient id="a" x1="0.412" x2="0.5" y2="1" gradientUnits="objectBoundingBox"><stop offset="0" stop-color="#a7eff6"/><stop offset="1" stop-color="#4eaeff"/></linearGradient></defs><g transform="translate(-1306.28 -657.28)"><rect class="a" width="16" height="16" transform="translate(1306.28 657.28)"/><path class="b" d="M8.836,8.032a.562.562,0,1,1-.795.795l-3.6-3.6V7.9a.562.562,0,0,1-1.124,0V3.8a.031.031,0,0,1,0-.011v0l0-.013h0a.039.039,0,0,1,0-.009v0a.057.057,0,0,1,0-.011v0a.039.039,0,0,1,0-.009v0a.056.056,0,0,1,0-.01v0l0-.01s0,0,0,0a.039.039,0,0,0,0-.009v0l0-.011s0,0,0,0l0-.008h0l0-.013,0,0,0-.005v0l.007-.013v0s0,0,0,0v0l.008-.015v0l0,0v0l.01-.018h0l0,0,.01-.015v0l0-.005.01-.015.007-.008.01-.013L3.444,3.5l.009-.01.019-.02.019-.018.01-.009.011-.009.013-.01.008-.007.015-.01L3.556,3.4l.015-.01.008,0,.015-.009L3.6,3.376l.015-.007.01-.005.013-.007.013,0,.011,0,.01,0h0l.011,0,.011,0h0l.009,0,.013,0h0l.009,0,.014,0h.013l.015,0H3.8l.015,0h.057l4.029,0a.562.562,0,1,1,0,1.124H5.226l3.61,3.592Zm3.952.961a.56.56,0,0,0,.4-.165l3.6-3.6V7.9a.562.562,0,0,0,1.124,0l0-4.029V3.841a.031.031,0,0,0,0-.011V3.813a.08.08,0,0,0,0-.013.053.053,0,0,0,0-.011v0a.1.1,0,0,0,0-.014s0-.006,0-.009v0a.079.079,0,0,0,0-.013l0-.009v0l0-.012,0-.01v0l0-.011,0-.011v0l0-.01,0-.012v0l0-.009-.006-.013v0l0-.007L17.846,3.6v0l0-.007-.009-.015h0l0-.007-.01-.015h0l0-.007-.01-.014h0L17.8,3.526l-.009-.012h0l-.009-.01-.008-.009-.017-.019-.019-.018h0l-.009-.008-.009-.007h0l-.013-.01-.005,0h0l-.013-.01,0,0h0l-.015-.01,0,0h0l-.015-.009,0,0h0l0,0-.014-.007,0,0,0,0h0l-.013-.007h0l-.007,0h0l-.012,0h0l-.007,0h0l-.011,0h0l-.008,0,0,0-.009,0h0l-.008,0h-.018l-.009,0H17.45l-.01,0H13.325a.562.562,0,1,0,0,1.124H16l-3.6,3.6A.562.562,0,0,0,12.8,9l-.007-.008Zm-4.75,3.391-3.6,3.6v-2.67a.562.562,0,0,0-1.124,0l0,4.029v.071h0a.026.026,0,0,0,0,.01v0a.079.079,0,0,0,0,.013h0a.018.018,0,0,0,0,.009s0,0,0,0a.066.066,0,0,0,0,.015l0,.008v0l0,.013,0,.009v0l0,.012,0,.01v0l0,.011,0,.011a0,0,0,0,0,0,0,.066.066,0,0,1,0,.009l.006.013v0l0,.008.007.013v0l0,.007.009.014v0l0,.007.009.015h0l.005.007.009.013h0l.007.008.009.012.01.012.007.008a.223.223,0,0,0,.018.017h0l.018.016,0,0h0l.009.007.009.008,0,0h0l.012.009.005,0h0l.013.01,0,0,0,0h0l.015.009.005,0h0l.015.009.007,0h0l.015.007.007,0h0l.013.006.008,0h0l.012,0,.01,0,0,0,.011,0,.011,0H3.71l.009,0,.013,0h0l.009,0,.013,0h0l.009,0,.013,0h0l.01,0H7.9a.562.562,0,1,0,0-1.124H5.23l3.6-3.6a.562.562,0,0,0-.8-.794l.005.005Zm9.871,4.959V13.313a.562.562,0,0,0-1.125,0v2.672l-3.6-3.6a.562.562,0,1,0-.794.8l3.6,3.6h-2.67a.562.562,0,0,0,0,1.124l4.029,0h.058l.014,0h.014l.014,0h.013l.013,0,.009,0h0l.013,0,.009,0h0l.011,0,.011,0h0l.01,0,.012,0h0l.009,0,.013-.006h0l.007,0,.015-.007.009-.005.015-.009.008,0,.015-.009.008-.006.014-.01.009-.007.013-.01.01-.009.009-.009.017-.017h0l.017-.017,0,0h0l.009-.01.005-.006,0,0h0l.01-.013,0,0,0,0h0l.01-.015,0-.007h0l.01-.016,0-.007.009-.016,0-.007v0l.008-.015,0-.007s0,0,0,0l.007-.013a.038.038,0,0,1,0-.008l0,0,0-.012,0-.009s0,0,0,0l0-.011,0-.011v0l0-.01,0-.012v0l0-.01,0-.013v0l0-.01,0-.013v-.015q0-.008,0-.016a.055.055,0,0,1,0-.015.069.069,0,0,0,0-.011v-.026a.014.014,0,0,0,0,0l0,0Z" transform="translate(1303.667 654.671)"/></g></svg>