<svg xmlns="http://www.w3.org/2000/svg" xmlns:xlink="http://www.w3.org/1999/xlink" width="425.996" height="224" viewBox="0 0 425.996 224" preserveAspectRatio="none"><defs><style>.a{fill:url(#a);}.b{fill:#07266c;}.c,.d{stroke:none;}.d{fill:#338ff9;}</style><linearGradient id="a" x1="0.5" y1="1" x2="0.5" gradientUnits="objectBoundingBox"><stop offset="0" stop-color="#03fefe"/><stop offset="1" stop-color="#2e89e0"/></linearGradient></defs><path class="a" d="M679.8,202c-6.216-3.51-5.8-7.245-5.8-12.2V170.288L1090,170v3.191l-410.2.081Z" transform="translate(-674 -170)"/><g class="b" transform="translate(12.996 3)"><path class="c" d="M 402.4997863769531 220.5 L 18.7801570892334 220.5 C 14.95162963867188 220.5 11.23852443695068 219.875 7.743945598602295 218.6424255371094 C 4.373103618621826 217.4534759521484 1.346998453140259 215.7524719238281 -1.250264763832092 213.5865783691406 C -3.840896368026733 211.4262084960938 -5.873738288879395 208.9126892089844 -7.292369842529297 206.1157379150391 C -8.757265090942383 203.2276306152344 -9.500001907348633 200.1606292724609 -9.500001907348633 197 L -9.500001907348633 0.5 L 402.4997863769531 0.5 L 402.4997863769531 100.470947265625 L 402.4997863769531 100.7052612304688 L 402.6798400878906 100.8551559448242 L 412.212158203125 108.7927551269531 L 402.6849365234375 116.5140533447266 L 402.4997863769531 116.6641082763672 L 402.4997863769531 116.902473449707 L 402.4997863769531 220.5 Z"/><path class="d" d="M -9 1 L -9 197 C -9 200.0813140869141 -8.275482177734375 203.0722045898438 -6.846466064453125 205.8895263671875 C -5.45880126953125 208.6255187988281 -3.46820068359375 211.0859985351562 -0.9300537109375 213.2025756835938 C 1.621368408203125 215.3302154541016 4.595672607421875 217.0018463134766 7.91021728515625 218.1708984375 C 11.35125732421875 219.3845825195312 15.0084228515625 220 18.7801513671875 220 L 401.9997863769531 220 L 401.9997863769531 116.4257354736328 L 411.4244689941406 108.7874908447266 L 401.9997863769531 100.9395294189453 L 401.9997863769531 1 L -9 1 M -10 0 L 402.9997863769531 0 L 402.9997863769531 100.470947265625 L 412.9997863769531 108.7979507446289 L 402.9997863769531 116.902473449707 L 402.9997863769531 221 L 18.7801513671875 221 C 2.88525390625 221 -10 210.2548370361328 -10 197 L -10 0 Z"/></g></svg>
