<svg xmlns="http://www.w3.org/2000/svg" xmlns:xlink="http://www.w3.org/1999/xlink" width="16" height="16" viewBox="0 0 16 16"><defs><style>.a{fill:none;}.b{fill:url(#a);}</style><linearGradient id="a" x1="0.412" x2="0.5" y2="1" gradientUnits="objectBoundingBox"><stop offset="0" stop-color="#a7eff6"/><stop offset="1" stop-color="#4eaeff"/></linearGradient></defs><g transform="translate(-1329.96 -223.96)"><rect class="a" width="16" height="16" transform="translate(1329.96 223.96)"/><path class="b" d="M1.238,0,.037,1.01A47.9,47.9,0,0,1,5.914,6.264C3.235,8.965,1.135,11.621.03,12.69L2.313,14.6a34.291,34.291,0,0,1,4.94-6.879A34.626,34.626,0,0,1,12.2,14.636s2.225-2.364,2.422-2c-.856-.966-2.949-3.776-5.759-6.652a45.756,45.756,0,0,1,5.35-4.735L13.686.271A27.669,27.669,0,0,0,7.538,4.7,29.256,29.256,0,0,0,1.238,0Z" transform="translate(1330.634 224.642)"/></g></svg>