<svg xmlns="http://www.w3.org/2000/svg" width="20" height="20" viewBox="0 0 20 20"><defs><style>.a{fill:none;}.b{fill:#fff;}</style></defs><rect class="a" width="20" height="20"/><path class="b" d="M21.614,21.247a9.217,9.217,0,0,0-8.641-6.289c-.5-.009-.979,0-1.43.033v3.582a.168.168,0,0,1,0,.033.16.16,0,0,1-.159.159.154.154,0,0,1-.135-.076V18.7L2.461,12.557h.046a.16.16,0,0,1-.07-.3L11.251,6.1v.015a.159.159,0,0,1,.294.083.168.168,0,0,1,0,.033V9.7q.6-.029,1.271-.017A9.336,9.336,0,0,1,21.9,18.995a9.053,9.053,0,0,1-.281,2.252ZM11.543,5.891v0h-.009Zm0,13.012-.007,0h.007Z" transform="translate(-2.121 -3.891)"/></svg>