<svg xmlns="http://www.w3.org/2000/svg" xmlns:xlink="http://www.w3.org/1999/xlink" width="385.013" height="37.572" viewBox="0 0 385.013 37.572"><defs><style>.a{fill:url(#a);}.b{fill:#2ca2ff;opacity:0.514;}.c,.d{fill:url(#b);}.d{opacity:0.523;}.e{fill:#2ca2fc;}</style><linearGradient id="a" y1="0.5" x2="1" y2="0.5" gradientUnits="objectBoundingBox"><stop offset="0" stop-color="#1856a3"/><stop offset="1" stop-color="#1856a3" stop-opacity="0"/></linearGradient><linearGradient id="b" x1="0.053" y1="0.463" x2="1" y2="0.476" gradientUnits="objectBoundingBox"><stop offset="0" stop-color="#2ca2fc"/><stop offset="1" stop-color="#2ca2fc" stop-opacity="0"/></linearGradient></defs><g transform="translate(-710 -152)"><path class="a" d="M-1.013.15,384,0V3L.387,3.043Z" transform="translate(711.013 152)"/><path class="b" d="M-9.17,12.235l.493-5.026L3.162,31H0Z" transform="translate(722.169 156.417)"/><path class="c" d="M-15.318,1.061,1.559,34.323,225,33.249,224.781.472l-240.1.589M-17-.014,225.777-.6,226,34.323.969,35.4Z" transform="translate(728 154.125)"/><path class="d" d="M-9-.009H173l-.086,34H8.5Z" transform="translate(721.004 154.531)"/><path class="e" d="M1832,3251.139l4,4.163-4,3.837Z" transform="translate(-1093.005 -3083.617)"/><path class="e" d="M-17-1.228h3.133L4.045,34.161H.921Z" transform="translate(728.066 155.411)"/></g></svg>
