<svg xmlns="http://www.w3.org/2000/svg" xmlns:xlink="http://www.w3.org/1999/xlink" width="22" height="22" viewBox="0 0 22 22"><defs><style>.a{fill:none;}.b{fill:url(#a);}</style><linearGradient id="a" x1="0.5" y1="0.389" x2="0.5" y2="1" gradientUnits="objectBoundingBox"><stop offset="0" stop-color="#00e0ff"/><stop offset="1" stop-color="#29a4ff"/></linearGradient></defs><g transform="translate(-1450.647 -892.647)"><rect class="a" width="22" height="22" transform="translate(1450.647 892.647)"/><path class="b" d="M14.83,16l2.541-2.541a.719.719,0,0,1,1.016,1.016l-3.049,3.049a.719.719,0,0,1-1.016,0L12.8,16a.719.719,0,1,1,1.016-1.016L14.83,16ZM17.7,8.259a6.818,6.818,0,0,0-2.021-.331,6.6,6.6,0,0,0-4.9-2.179,6.33,6.33,0,0,0-6.323,6.323v6.613H7.328V12.218a.719.719,0,1,1,1.437,0v6.468h1.244a6.867,6.867,0,0,0,1.364,1.437H4.453a1.437,1.437,0,0,1-1.437-1.437V12.072a7.769,7.769,0,0,1,7.76-7.76A8.057,8.057,0,0,1,17.7,8.259ZM10.921,2.875a.719.719,0,0,1-.719-.719V.719a.719.719,0,0,1,1.437,0V2.156A.719.719,0,0,1,10.921,2.875ZM3.738,4.921,2.9,3.885a.718.718,0,0,1,.109-1.009h0a.72.72,0,0,1,1.011.11L4.86,4.022A.718.718,0,0,1,4.75,5.031h0A.72.72,0,0,1,3.738,4.921Zm13.23.106a.718.718,0,0,1-.076-1.013h0l.918-1.067a.719.719,0,0,1,1.09.937h0l-.918,1.067A.719.719,0,0,1,16.968,5.028ZM15.592,20.842A6.109,6.109,0,1,1,21.7,14.733,6.109,6.109,0,0,1,15.592,20.842Zm0-1.437a4.671,4.671,0,1,0-4.671-4.671A4.671,4.671,0,0,0,15.592,19.4Z" transform="translate(1449.424 893.227)"/></g></svg>