<svg xmlns="http://www.w3.org/2000/svg" xmlns:xlink="http://www.w3.org/1999/xlink" width="18" height="18" viewBox="0 0 18 18"><defs><style>.a{fill:none;}.b{fill:url(#a);}</style><linearGradient id="a" x1="0.5" y1="0.389" x2="0.5" y2="1" gradientUnits="objectBoundingBox"><stop offset="0" stop-color="#00e0ff"/><stop offset="1" stop-color="#29a4ff"/></linearGradient></defs><g transform="translate(-996 -157)"><rect class="a" width="18" height="18" transform="translate(996 157)"/><g transform="translate(997.73 157.9)"><path class="b" d="M13.983,1.272A17.675,17.675,0,0,0,7.271,0,17.651,17.651,0,0,0,.559,1.274a.593.593,0,0,0-.232.46V9.024c0,3.011,4.281,5.9,6.827,7.176h.232c2.546-1.274,6.827-4.166,6.827-7.176V1.736A.594.594,0,0,0,13.983,1.272Zm-.925,7.639c0,1.967-2.894,4.4-5.787,6.019-2.893-1.5-5.787-4.051-5.787-6.019V2.2a16.59,16.59,0,0,1,11.574,0Zm0,0"/><path class="b" d="M7.652,11.99a.584.584,0,0,1-.306-.076.643.643,0,0,1-.306-.84L8.186,8.627H6.122a.578.578,0,0,1-.536-.306.58.58,0,0,1-.076-.612L6.734,4.5a.653.653,0,1,1,1.222.458L7.038,7.324H9.179a.513.513,0,0,1,.536.306.6.6,0,0,1,.076.612L8.185,11.608a.572.572,0,0,1-.533.382Zm0,0" transform="translate(-0.241 -0.191)"/></g></g></svg>