<svg xmlns="http://www.w3.org/2000/svg" xmlns:xlink="http://www.w3.org/1999/xlink" width="18" height="18" viewBox="0 0 18 18"><defs><style>.a{fill:none;}.b{fill:url(#a);}</style><linearGradient id="a" x1="0.5" y1="0.389" x2="0.5" y2="1" gradientUnits="objectBoundingBox"><stop offset="0" stop-color="#00e0ff"/><stop offset="1" stop-color="#29a4ff"/></linearGradient></defs><g transform="translate(-637 -158)"><rect class="a" width="18" height="18" transform="translate(637 158)"/><path class="b" d="M3.659,14.782a.592.592,0,0,0,.593.593H14.88a.592.592,0,0,0,.593-.593V10.468a5.907,5.907,0,1,0-11.814,0Zm1.176-4.132A4.962,4.962,0,0,1,9.566,5.792,4.965,4.965,0,0,1,14.3,10.651v3.574H7.586V11.058a.186.186,0,0,0-.185-.185H6.586a.186.186,0,0,0-.185.185v3.166H4.835ZM4.1,5.792l.733-.733a.149.149,0,0,0,0-.209L3.577,3.592a.149.149,0,0,0-.209,0l-.733.733a.149.149,0,0,0,0,.209L3.892,5.792a.149.149,0,0,0,.209,0ZM16.5,4.326l-.733-.733a.149.149,0,0,0-.209,0L14.3,4.85a.149.149,0,0,0,0,.209l.733.733a.149.149,0,0,0,.209,0L16.5,4.535A.149.149,0,0,0,16.5,4.326ZM15.491,16.56H3.64a.592.592,0,0,0-.593.593V17.6a.149.149,0,0,0,.148.148h12.74a.149.149,0,0,0,.148-.148v-.444A.592.592,0,0,0,15.491,16.56ZM9.047,3.376h1.037a.149.149,0,0,0,.148-.148V1.45a.149.149,0,0,0-.148-.148H9.047A.149.149,0,0,0,8.9,1.45V3.228A.149.149,0,0,0,9.047,3.376Z" transform="translate(636.433 157.477)"/></g></svg>