<svg xmlns="http://www.w3.org/2000/svg" xmlns:xlink="http://www.w3.org/1999/xlink" width="18" height="18" viewBox="0 0 18 18"><defs><style>.a{fill:none;}.b{fill:url(#a);}</style><linearGradient id="a" x1="0.5" y1="0.389" x2="0.5" y2="1" gradientUnits="objectBoundingBox"><stop offset="0" stop-color="#00e0ff"/><stop offset="1" stop-color="#29a4ff"/></linearGradient></defs><g transform="translate(-1177 -159)"><rect class="a" width="18" height="18" transform="translate(1177 159)"/><g transform="translate(431.265 -72.792)"><path class="b" d="M6.666,15.3h-.22a19.441,19.441,0,0,1-4.124-2.771C.781,11.129,0,9.782,0,8.522V1.637A.556.556,0,0,1,.22,1.2,16.575,16.575,0,0,1,6.557,0a16.606,16.606,0,0,1,6.338,1.2.562.562,0,0,1,.218.438V6.05a5.167,5.167,0,0,0-1.091-.43V2.078a15.649,15.649,0,0,0-10.929,0V8.414c0,1.867,2.749,4.273,5.465,5.684l.013-.008.009,0L6.736,14a5.245,5.245,0,0,0,.86.8c-.325.185-.637.352-.929.5ZM6.23,7.966H5.245a.544.544,0,0,1-.507-.291A.549.549,0,0,1,4.665,7.1L5.822,4.065a.723.723,0,0,1,.6-.407.434.434,0,0,1,.2.047.766.766,0,0,1,.379.427.47.47,0,0,1-.017.366L6.109,6.736H7.256A5.2,5.2,0,0,0,6.231,7.965Z" transform="translate(748.187 234.247)"/><path class="b" d="M12.12,15.757A4.683,4.683,0,1,1,16.8,11.075,4.683,4.683,0,0,1,12.12,15.757Zm0-1.1a3.581,3.581,0,1,0-3.581-3.581A3.581,3.581,0,0,0,12.12,14.656Zm-2.2-4.132a.551.551,0,1,1-.551.551A.551.551,0,0,1,9.917,10.524Zm2.2,0a.551.551,0,1,1-.551.551A.551.551,0,0,1,12.12,10.524Zm2.2,0a.551.551,0,1,1-.551.551A.551.551,0,0,1,14.324,10.524Z" transform="translate(746.745 233.82)"/></g></g></svg>