<svg xmlns="http://www.w3.org/2000/svg" xmlns:xlink="http://www.w3.org/1999/xlink" width="40" height="40" viewBox="0 0 40 40"><defs><style>.a{fill:#fff;}.b{clip-path:url(#a);}.c{fill:#46ebff;}.d{filter:url(#p);}.e{filter:url(#n);}.f{filter:url(#l);}.g{filter:url(#j);}.h{filter:url(#h);}.i{filter:url(#f);}.j{filter:url(#d);}.k{filter:url(#b);}</style><clipPath id="a"><rect class="a" width="40" height="40" transform="translate(1111 168)"/></clipPath><filter id="b" x="8.443" y="1.5" width="24.326" height="24.99" filterUnits="userSpaceOnUse"><feOffset input="SourceAlpha"/><feGaussianBlur stdDeviation="2.5" result="c"/><feFlood flood-color="#46ebff" flood-opacity="0.6"/><feComposite operator="in" in2="c"/><feComposite in="SourceGraphic"/></filter><filter id="d" x="0.826" y="12.277" width="39.561" height="30.533" filterUnits="userSpaceOnUse"><feOffset input="SourceAlpha"/><feGaussianBlur stdDeviation="2.5" result="e"/><feFlood flood-color="#46ebff" flood-opacity="0.6"/><feComposite operator="in" in2="e"/><feComposite in="SourceGraphic"/></filter><filter id="f" x="17.653" y="7.129" width="16.846" height="16.846" filterUnits="userSpaceOnUse"><feOffset input="SourceAlpha"/><feGaussianBlur stdDeviation="2.5" result="g"/><feFlood flood-color="#46ebff" flood-opacity="0.6"/><feComposite operator="in" in2="g"/><feComposite in="SourceGraphic"/></filter><filter id="h" x="18.576" y="8.052" width="22.13" height="15" filterUnits="userSpaceOnUse"><feOffset input="SourceAlpha"/><feGaussianBlur stdDeviation="2.5" result="i"/><feFlood flood-color="#46ebff" flood-opacity="0.6"/><feComposite operator="in" in2="i"/><feComposite in="SourceGraphic"/></filter><filter id="j" x="24.447" y="22.312" width="16.846" height="16.846" filterUnits="userSpaceOnUse"><feOffset input="SourceAlpha"/><feGaussianBlur stdDeviation="2.5" result="k"/><feFlood flood-color="#46ebff" flood-opacity="0.6"/><feComposite operator="in" in2="k"/><feComposite in="SourceGraphic"/></filter><filter id="l" x="25.37" y="23.235" width="22.13" height="15" filterUnits="userSpaceOnUse"><feOffset input="SourceAlpha"/><feGaussianBlur stdDeviation="2.5" result="m"/><feFlood flood-color="#46ebff" flood-opacity="0.6"/><feComposite operator="in" in2="m"/><feComposite in="SourceGraphic"/></filter><filter id="n" x="3.812" y="14.678" width="16.846" height="16.846" filterUnits="userSpaceOnUse"><feOffset input="SourceAlpha"/><feGaussianBlur stdDeviation="2.5" result="o"/><feFlood flood-color="#46ebff" flood-opacity="0.6"/><feComposite operator="in" in2="o"/><feComposite in="SourceGraphic"/></filter><filter id="p" x="-2.395" y="15.601" width="22.13" height="15" filterUnits="userSpaceOnUse"><feOffset input="SourceAlpha"/><feGaussianBlur stdDeviation="2.5" result="q"/><feFlood flood-color="#46ebff" flood-opacity="0.6"/><feComposite operator="in" in2="q"/><feComposite in="SourceGraphic"/></filter></defs><g class="b" transform="translate(-1111 -168)"><g transform="translate(1114.664 172.28)"><g class="k" transform="matrix(1, 0, 0, 1, -3.66, -4.28)"><path class="c" d="M15.422,4.72l-4.663,9.99h9.326Z" transform="translate(5.18 4.28)"/></g><g class="j" transform="matrix(1, 0, 0, 1, -3.66, -4.28)"><path class="c" d="M4.21,29.518H28.771l-3.359-7.2H7.57Zm7.25-15.533L7.937,21.535H25.045l-3.524-7.549Z" transform="translate(4.12 5.79)"/></g><g class="i" transform="matrix(1, 0, 0, 1, -3.66, -4.28)"><path class="c" d="M19.6,10.482m-.923,0a.923.923,0,1,0,.923-.923A.923.923,0,0,0,18.677,10.482Z" transform="translate(6.48 5.07)"/></g><g class="h" transform="matrix(1, 0, 0, 1, -3.66, -4.28)"><path class="c" d="M19.47,10.352H26.6" transform="translate(6.61 5.2)"/></g><g class="g" transform="matrix(1, 0, 0, 1, -3.66, -4.28)"><path class="c" d="M25.44,23.535m-.923,0a.923.923,0,1,0,.923-.923.923.923,0,0,0-.923.923Z" transform="translate(7.43 7.2)"/></g><g class="f" transform="matrix(1, 0, 0, 1, -3.66, -4.28)"><path class="c" d="M25.311,23.406h7.13" transform="translate(7.56 7.33)"/></g><g class="e" transform="matrix(1, 0, 0, 1, -3.66, -4.28)"><path class="c" d="M7.7,16.972m-.923,0a.923.923,0,1,0,.923-.923A.923.923,0,0,0,6.777,16.972Z" transform="translate(4.53 6.13)"/></g><g class="d" transform="matrix(1, 0, 0, 1, -3.66, -4.28)"><path class="c" d="M8.571,16.843H1.441" transform="translate(3.66 6.26)"/></g></g></g></svg>