<svg xmlns="http://www.w3.org/2000/svg" xmlns:xlink="http://www.w3.org/1999/xlink" width="40" height="40" viewBox="0 0 40 40"><defs><style>.a{fill:#fff;}.b{clip-path:url(#a);}.c{fill:#46ebff;stroke:rgba(0,0,0,0);stroke-miterlimit:10;}.d{filter:url(#b);}</style><clipPath id="a"><rect class="a" width="40" height="40" transform="translate(888 171)"/></clipPath><filter id="b" x="-3" y="-3" width="46.057" height="46.001" filterUnits="userSpaceOnUse"><feOffset input="SourceAlpha"/><feGaussianBlur stdDeviation="2.5" result="c"/><feFlood flood-color="#46ebff" flood-opacity="0.6"/><feComposite operator="in" in2="c"/><feComposite in="SourceGraphic"/></filter></defs><g class="b" transform="translate(-888 -171)"><g class="d" transform="matrix(1, 0, 0, 1, 888, 171)"><path class="c" d="M30.989,15.284c-.01.041-.021.081-.033.122l-.011.036c-.009.029-.019.059-.029.088l-.013.037-.012.032c-.01.028-.021.055-.032.083l-.012.029-.027.061c0,.009-.008.018-.012.026l-.023.048-.011.021-.025.05-.025.048-.013.022c-.015.027-.029.053-.045.08l-.034.056-.034.054-.041.062-.03.044c-.026.039-.054.077-.082.115h0c-.029.038-.057.076-.088.113l-.008.01-.017.021-.061.073-.005.006-.012.014c-.046.054-.094.107-.144.16h0q-.145.153-.31.3h0c-.052.047-.107.094-.162.14l-.014.012q-.174.144-.366.282a9.118,9.118,0,0,1,1.81.6V15.284h-.074ZM7.077,12.72c.255,2.449,4.133,4.471,9.277,5.006.544.056,1.1.1,1.673.118q.513.02,1.037.02l.348,0c.81-.01,1.6-.056,2.362-.136a22.718,22.718,0,0,0,2.7-.442l.216-.051c.553-.132,1.08-.283,1.577-.452.1-.032.192-.066.286-.1.2-.073.4-.149.593-.227.137-.056.27-.114.4-.173s.256-.118.38-.179l.166-.084c.183-.094.36-.191.529-.291l.006,0q.364-.217.681-.449l.15-.114A5.983,5.983,0,0,0,30,14.689c.041-.041.081-.083.121-.124a4.311,4.311,0,0,0,.407-.5c.056-.083.109-.165.157-.25s.1-.186.143-.28q.035-.079.065-.158a2.633,2.633,0,0,0,.158-.658c0-.039.007-.078.01-.117s0-.093,0-.139c0-2.982-5.372-5.4-12-5.4s-12,2.418-12,5.4c0,.046,0,.093,0,.139S7.073,12.681,7.077,12.72ZM20.5,32.824l-.326.016-.087,0q-.228.009-.458.014h-.076c-.161,0-.322,0-.485,0s-.324,0-.485,0H18.5q-.23,0-.458-.014l-.087,0q-.23-.009-.458-.022l-.055,0q-.227-.014-.451-.031l-.034,0q-.228-.018-.454-.04l-.074-.007c-.148-.015-.294-.031-.438-.049l-.069-.008c-.15-.018-.3-.037-.446-.059h-.014c-.148-.021-.3-.044-.442-.067l-.043-.007q-.215-.035-.426-.073l-.062-.012q-.211-.038-.418-.081l-.041-.009q-.43-.089-.842-.193l-.04-.01q-.2-.051-.394-.105l-.044-.012c-.132-.037-.262-.076-.391-.115l-.01,0q-.2-.062-.4-.126h0c-.126-.042-.249-.085-.371-.129l-.021-.007h0c-2.394-.871-4.028-2.149-4.384-3.6H7.063v3.6c0,2.422,3.544,4.472,8.426,5.156h0c.125.017.252.034.38.05l.092.011c.126.015.253.03.381.043h.006c.13.014.26.026.391.037l.1.008.392.031h0c.133.009.266.017.4.024l.1.005q.2.01.4.017h0l.408.01.1,0c.137,0,.274,0,.413,0s.276,0,.413,0l.1,0,.408-.01h0q.2-.007.4-.017l.1-.005c.134-.007.268-.015.4-.024h0l.393-.031.1-.008c.131-.012.262-.024.391-.037h.005c.128-.013.255-.028.381-.043l.093-.011c.127-.015.254-.032.381-.05h0A19.394,19.394,0,0,0,26.8,35.79,9.221,9.221,0,0,1,20.5,32.824ZM7.07,25.44c0,.029,0,.057.007.086s0,.031.006.046.007.054.011.081,0,.03.007.045.011.059.017.088l.007.037c.01.041.019.082.031.123,0,0,0,.008,0,.012.01.037.021.073.034.11,0,.013.009.026.013.04s.02.055.03.083l.017.043c.011.027.022.054.034.08s.012.028.018.042c.013.029.027.059.042.088l.015.032c.021.04.041.079.063.119l.01.018.059.1.023.037.052.081.027.04.056.079.027.037.07.092.017.022c.031.038.062.077.1.114l.015.017q.041.048.084.095l.03.032.076.08.034.034.081.08.03.029.108.1.008.008.126.11.017.014c.036.031.073.061.111.091l.033.027.1.079.036.027.11.082.029.021q.145.1.3.2l.014.009.14.089.032.02.131.079.033.02.146.083.019.011q.173.1.356.191l.008,0,.172.086.027.013.163.077.026.012q.384.178.8.339l.018.007.2.074.012,0q.434.158.9.3l.007,0a20.694,20.694,0,0,0,3.091.666h0l.111.014.219.029.051.007.092.011.026,0c.092.011.185.022.278.031l.077.009h.006l.119.011.213.02.06.006.1.008.022,0,.323.025.047,0h0l.119.007.219.013.063,0,.1.005h.015l.331.014.057,0h0l.116,0,.219.006c.025,0,.049-.012.074-.011s.068-.011.1-.011h.005s-.012.014-.012.014v.007c.155,0,.255.005.365.006a9.2,9.2,0,0,1-.965-4.112c0-.036,0-.054,0-.114h0c-.029,0-.058,0-.087,0-.153-.006-.306-.011-.458-.02l-.055,0c-.151-.009-.3-.018-.451-.03l-.034,0q-.229-.018-.454-.04l-.074-.007q-.221-.022-.438-.049l-.069-.008q-.225-.028-.446-.058l-.014,0q-.223-.032-.442-.067l-.043-.007c-.143-.023-.285-.048-.426-.074l-.062-.011q-.211-.039-.418-.082l-.041-.008q-.43-.09-.841-.193l-.04-.01q-.2-.051-.394-.1l-.045-.012c-.132-.037-.262-.076-.391-.114l-.01,0q-.2-.062-.4-.127h0c-.126-.042-.249-.07-.371-.114h-.005c-.005,0-.01.007-.015.007h0q-.214-.08-.42-.165l-.02-.008q-.2-.084-.4-.172l-.021-.009q-.2-.088-.384-.18l-.018-.009q-.2-.1-.38-.2h0c-.116-.063-.229-.127-.339-.191l-.022-.013q-.35-.208-.656-.429h0a4.405,4.405,0,0,1-1.634-1.945,2.6,2.6,0,0,1-.088-.282H7.064v3.57c0,.042,0,.084,0,.126C7.068,25.413,7.069,25.427,7.07,25.44Zm0-6.39c0,.029,0,.058.007.087s0,.03.005.045.007.055.011.083,0,.029.007.044c.005.03.011.061.018.091,0,.011,0,.022.007.032a2.505,2.505,0,0,0,.069.25l.008.024c.012.034.024.068.037.1l.01.025c.015.036.029.072.045.108l.006.014c.867,1.941,4.046,3.5,8.189,4.086h0c.126.018.252.034.38.05l.092.011c.127.015.253.03.381.043h.006c.129.013.26.026.391.037l.1.008c.13.011.261.021.392.03h0c.133.009.266.017.4.024l.1,0h.005c.2.01.393.018.592.024a9.236,9.236,0,0,1,2.426-4.245l-.074,0-.05,0h-.005l-.153.008-.3.015-.076,0h-.021q-.223.009-.448.013h-.076c-.161,0-.323,0-.485,0s-.324,0-.485,0H18.5q-.23,0-.458-.013h-.022l-.065,0c-.115,0-.229-.011-.343-.017l-.114-.006h-.011l-.044,0-.15-.01c-.1-.007-.2-.013-.3-.021H16.96l-.261-.024-.193-.018-.026,0-.049-.005q-.221-.022-.438-.048l-.033,0-.036,0q-.225-.027-.446-.058h-.014l-.206-.032-.107-.016-.129-.02-.043-.007-.13-.022-.3-.051-.031-.006-.031-.006q-.211-.039-.417-.081l-.041-.009q-.215-.045-.426-.093t-.416-.1l-.04-.01q-.2-.051-.394-.105l-.045-.012c-.132-.037-.262-.075-.391-.114l-.01,0c-.134-.041-.266-.083-.4-.127h0q-.188-.063-.371-.13l-.021-.007h0l-.255-.1-.077-.03-.177-.071-.082-.034-.181-.076-.062-.027c-.081-.035-.161-.071-.239-.108l-.017-.008-.214-.1-.059-.029-.171-.087-.057-.03q-.1-.051-.192-.1l-.022-.012c-.074-.041-.147-.083-.219-.126l-.006,0c-.067-.04-.132-.08-.2-.121L9.259,17.8c-.057-.037-.114-.073-.17-.111l-.028-.019q-.294-.2-.549-.41L8.5,17.242c-.053-.044-.1-.089-.156-.134L8.332,17.1c-.109-.1-.212-.2-.308-.3q-.079-.083-.152-.167l-.008-.009-.006-.007L7.8,16.542l-.005-.006-.018-.022q-.046-.057-.088-.114h0c-.028-.038-.056-.076-.083-.115l-.029-.043-.041-.063L7.5,16.123l-.035-.058c-.016-.027-.03-.054-.045-.08L7.4,15.964l-.026-.049-.01-.019-.026-.051L7.321,15.8l-.007-.016c-.011-.023-.021-.046-.031-.069l-.014-.032c-.012-.027-.022-.055-.032-.083l-.012-.032-.013-.037c-.01-.029-.02-.058-.029-.088L7.171,15.4c-.012-.04-.023-.08-.033-.121H7.063v3.6c0,.043,0,.084,0,.126C7.068,19.024,7.069,19.037,7.07,19.05Zm29.885,15.7-3.293-3.292h0a8.03,8.03,0,1,0-2.348,2.063l3.435,3.434a.48.48,0,0,0,.67-.065l1.471-1.471A.481.481,0,0,0,36.955,34.748ZM21.116,26.563a6.166,6.166,0,1,1,6.166,6.166A6.167,6.167,0,0,1,21.116,26.563ZM33.541,31.61h0Zm-2.054,1.807,0,0Zm.162-.1.007-.005Zm.163-.109.009-.006Zm.161-.113.009-.007Zm.158-.117.01-.008Zm.156-.121.008-.007Zm.152-.124.008-.007Zm.149-.128.007-.006Zm.146-.131.005,0Zm.143-.135,0,0Zm.139-.139,0,0Zm.4-.437h0Zm-.128.148h0Zm-.132.144,0,0Z" transform="translate(-2.06 -2.06)"/></g></g></svg>