<svg xmlns="http://www.w3.org/2000/svg" xmlns:xlink="http://www.w3.org/1999/xlink" width="1245" height="883" viewBox="0 0 1245 883"><defs><style>.a{fill:#021e5f;}.b{fill:#6fc2ff;}.c,.d{stroke:none;}.d{fill:#6fc2fc;}.e{filter:url(#c);}.f{filter:url(#a);}</style><filter id="a" x="1200.574" y="838.574" width="44.426" height="44.426" filterUnits="userSpaceOnUse"><feOffset dy="3" input="SourceAlpha"/><feGaussianBlur stdDeviation="3" result="b"/><feFlood flood-color="#6fc2ff" flood-opacity="0.486"/><feComposite operator="in" in2="b"/><feComposite in="SourceGraphic"/></filter><filter id="c" x="0" y="0" width="44.426" height="44.426" filterUnits="userSpaceOnUse"><feOffset dy="3" input="SourceAlpha"/><feGaussianBlur stdDeviation="3" result="d"/><feFlood flood-color="#6fc2ff" flood-opacity="0.486"/><feComposite operator="in" in2="d"/><feComposite in="SourceGraphic"/></filter></defs><g transform="translate(-338 -100)"><g class="a" transform="translate(408.398 179.531)"><path class="c" d="M 1124.919311523438 790.96875 L -60.89794921875 790.96875 L -60.89794921875 -31.82452964782715 L -20.35414505004883 -72.81375122070312 L 1165.10205078125 -73.03115844726562 L 1165.10205078125 754.294677734375 L 1124.919311523438 790.96875 Z"/><path class="d" d="M 1164.60205078125 -72.53106689453125 L -20.1456298828125 -72.31378173828125 L -60.39794921875 -31.61920166015625 L -60.39794921875 790.46875 L 1124.725463867188 790.46875 L 1164.60205078125 754.0741577148438 L 1164.60205078125 -72.53106689453125 M 1165.60205078125 -73.53125 L 1165.60205078125 754.515380859375 L 1125.11328125 791.46875 L -61.39794921875 791.46875 L -61.39794921875 -32.0301513671875 L -20.56298828125 -73.313720703125 L 1165.60205078125 -73.53125 Z"/></g><g class="f" transform="matrix(1, 0, 0, 1, 338, 100)"><rect class="b" width="32.451" height="4.921" transform="translate(1209.57 867.52) rotate(-45)"/></g><g class="e" transform="matrix(1, 0, 0, 1, 338, 100)"><rect class="b" width="32.451" height="4.921" transform="translate(9 28.95) rotate(-45)"/></g></g></svg>