<svg xmlns="http://www.w3.org/2000/svg" xmlns:xlink="http://www.w3.org/1999/xlink" width="168" height="145" viewBox="0 0 168 145"><defs><style>.a{stroke:rgba(98,243,255,0.2);fill:url(#a);}.b,.d{fill:none;}.b{stroke:#62f8fe;}.c{stroke:none;}.e{filter:url(#h);}.f{filter:url(#f);}.g{filter:url(#d);}.h{filter:url(#b);}</style><linearGradient id="a" x1="0.5" y1="0.757" x2="0.5" y2="1" gradientUnits="objectBoundingBox"><stop offset="0" stop-color="#022152" stop-opacity="0.102"/><stop offset="1" stop-color="#0080c3" stop-opacity="0.302"/></linearGradient><filter id="b" x="0" y="0" width="20.426" height="20.426" filterUnits="userSpaceOnUse"><feOffset input="SourceAlpha"/><feGaussianBlur stdDeviation="2" result="c"/><feFlood flood-color="#5fe6ff"/><feComposite operator="in" in2="c"/><feComposite in="SourceGraphic"/></filter><filter id="d" x="148.075" y="0" width="20.426" height="20.426" filterUnits="userSpaceOnUse"><feOffset input="SourceAlpha"/><feGaussianBlur stdDeviation="2" result="e"/><feFlood flood-color="#5fe6ff"/><feComposite operator="in" in2="e"/><feComposite in="SourceGraphic"/></filter><filter id="f" x="0" y="124.475" width="20.426" height="20.426" filterUnits="userSpaceOnUse"><feOffset input="SourceAlpha"/><feGaussianBlur stdDeviation="2" result="g"/><feFlood flood-color="#5fe6ff"/><feComposite operator="in" in2="g"/><feComposite in="SourceGraphic"/></filter><filter id="h" x="148.075" y="124.475" width="20.426" height="20.426" filterUnits="userSpaceOnUse"><feOffset input="SourceAlpha"/><feGaussianBlur stdDeviation="2" result="i"/><feFlood flood-color="#5fe6ff"/><feComposite operator="in" in2="i"/><feComposite in="SourceGraphic"/></filter></defs><g transform="translate(-688.831 -726.865)"><g class="a" transform="translate(694.832 733.064)"><rect class="c" width="155.767" height="133"/><rect class="d" x="0.5" y="0.5" width="154.767" height="132"/></g><g transform="translate(695.33 733.365)"><g class="h" transform="matrix(1, 0, 0, 1, -6.5, -6.5)"><path class="b" d="M-4483.711-5751.524h-7.926v7.926" transform="translate(4498.14 5758.02)"/></g><g class="g" transform="matrix(1, 0, 0, 1, -6.5, -6.5)"><path class="b" d="M-4491.636-5751.524h7.926v7.926" transform="translate(4645.71 5758.02)"/></g><g class="f" transform="matrix(1, 0, 0, 1, -6.5, -6.5)"><path class="b" d="M-4483.711-5743.6h-7.926v-7.926" transform="translate(4498.14 5882)"/></g><g class="e" transform="matrix(1, 0, 0, 1, -6.5, -6.5)"><path class="b" d="M-4491.636-5743.6h7.926v-7.926" transform="translate(4645.71 5882)"/></g></g></g></svg>
