<svg xmlns="http://www.w3.org/2000/svg" xmlns:xlink="http://www.w3.org/1999/xlink" width="54" height="62" viewBox="0 0 54 62"><defs><style>.a,.b{fill:#fff;}.b{stroke:#707070;}.c{clip-path:url(#a);}.d{fill:url(#b);}.e{fill:url(#f);}.f{clip-path:url(#l);}.g{opacity:0.25;}.h{fill:url(#m);}.i{fill:url(#q);}.j{filter:url(#j);}.k{filter:url(#g);}.l{filter:url(#d);}</style><clipPath id="a"><rect class="a" width="54" height="62" transform="translate(68 489)"/></clipPath><linearGradient id="b" x1="0.5" y1="1" x2="0.5" gradientUnits="objectBoundingBox"><stop offset="0" stop-color="#1c5fad"/><stop offset="1" stop-color="#1c5fad" stop-opacity="0"/></linearGradient><filter id="d" x="-21.065" y="-3.952" width="95.54" height="76.194" filterUnits="userSpaceOnUse"><feOffset dy="5" input="SourceAlpha"/><feGaussianBlur stdDeviation="10" result="e"/><feFlood flood-color="#1981f2"/><feComposite operator="in" in2="e"/><feComposite in="SourceGraphic"/></filter><linearGradient id="f" x1="0.5" y1="0.375" x2="0.5" y2="1" gradientUnits="objectBoundingBox"><stop offset="0" stop-color="#43e2ff" stop-opacity="0"/><stop offset="1" stop-color="#43e2ff"/></linearGradient><filter id="g" x="-4.5" y="3.891" width="62.409" height="36.594" filterUnits="userSpaceOnUse"><feOffset dy="2" input="SourceAlpha"/><feGaussianBlur stdDeviation="2.5" result="h"/><feFlood flood-color="#002f76"/><feComposite operator="in" in2="h"/><feComposite in="SourceGraphic"/></filter><filter id="j" x="1.435" y="15.548" width="50.54" height="31.196" filterUnits="userSpaceOnUse"><feOffset dy="2" input="SourceAlpha"/><feGaussianBlur stdDeviation="2.5" result="k"/><feFlood flood-color="#002f76"/><feComposite operator="in" in2="k"/><feComposite in="SourceGraphic"/></filter><clipPath id="l"><rect class="b" width="43.666" height="14.555"/></clipPath><linearGradient id="m" x1="0.5" x2="0.5" y2="1" gradientUnits="objectBoundingBox"><stop offset="0" stop-color="#2792ff"/><stop offset="1" stop-color="#41c1fd"/></linearGradient><linearGradient id="q" x1="0.5" x2="0.5" y2="1" gradientUnits="objectBoundingBox"><stop offset="0" stop-color="#2792ff"/><stop offset="1" stop-color="#41dbfb"/></linearGradient></defs><g class="c" transform="translate(-68 -489)"><g transform="translate(1 -1.332)"><path class="d" d="M332.011,4531.6l16.883-7.689a13.239,13.239,0,0,1,9.647,0l16.883,7.689c2.664,1.214,2.664,3.182,0,4.394l-16.883,7.691a13.239,13.239,0,0,1-9.647,0L332.011,4536C329.348,4534.787,329.348,4532.819,332.011,4531.6Z" transform="translate(-260.013 -4023.282)"/><g class="l" transform="matrix(1, 0, 0, 1, 67, 490.33)"><path class="d" d="M331.511,4529.457l12.656-5.769a9.934,9.934,0,0,1,7.232,0l12.656,5.769c2,.909,2,2.385,0,3.293l-12.656,5.769a9.929,9.929,0,0,1-7.232,0l-12.656-5.769C329.514,4531.841,329.514,4530.366,331.511,4529.457Z" transform="translate(-321.08 -4501.96)"/></g><g class="k" transform="matrix(1, 0, 0, 1, 67, 490.33)"><path class="e" d="M353.718,4524.042a11.346,11.346,0,0,0-4.5.839l-16.883,7.69c-1.05.478-1.431,1-1.431,1.233s.381.752,1.431,1.231l16.883,7.69a12.478,12.478,0,0,0,8.993,0l16.883-7.69c1.05-.479,1.431-1,1.431-1.231s-.381-.755-1.431-1.233l-16.883-7.69a11.346,11.346,0,0,0-4.5-.839m0-1.037a12.044,12.044,0,0,1,4.824.911l16.883,7.689c2.664,1.214,2.664,3.18,0,4.395l-16.883,7.689a13.249,13.249,0,0,1-9.647,0L332.011,4536c-2.664-1.214-2.664-3.181,0-4.395l16.883-7.689A12.043,12.043,0,0,1,353.718,4523Z" transform="translate(-327.01 -4513.61)"/></g><g class="j" transform="matrix(1, 0, 0, 1, 67, 490.33)"><path class="e" d="M347.783,4523.782a8.479,8.479,0,0,0-3.371.63l-12.656,5.768c-.787.358-1.072.749-1.072.923s.286.564,1.072.924l12.656,5.768a9.348,9.348,0,0,0,6.742,0l12.656-5.768c.787-.36,1.073-.749,1.073-.924s-.285-.565-1.073-.923l-12.656-5.768a8.479,8.479,0,0,0-3.371-.63m0-.777a9.02,9.02,0,0,1,3.616.683l12.656,5.768c2,.911,2,2.385,0,3.295l-12.656,5.768a9.929,9.929,0,0,1-7.232,0l-12.656-5.768c-2-.91-2-2.384,0-3.295l12.656-5.768A9.02,9.02,0,0,1,347.783,4523Z" transform="translate(-321.08 -4501.96)"/></g><g transform="translate(0 1)"><g class="g" transform="translate(82.049 489.332)"><path class="h" d="M19.9,4.034C19.9,1.8,15.864,0,10.875,0S1.851,1.8,1.851,4.034v.538s-.6,13.1.565,13.417a5.053,5.053,0,0,0-.565,0c.02.02.672.078.671.107.107.107.319.107.425.212.107,0,.212.107.425.107.107,0,.107,0,.212.107.107,0,.319.107.425.107h.212a6.768,6.768,0,0,0,.744.212c.212,0,.425.107.637.107h.107c.212,0,.425.107.637.107h.212a1.346,1.346,0,0,1,.637.107l12.705-1.6V4.034Z"/><path class="h" d="M10.875,12.923c4.572,0,8.28-1.486,9.024-3.4V6.554c-.849,1.911-4.572,3.29-9.024,3.29-4.572,0-8.28-1.486-9.024-3.4V9.633C2.7,11.544,6.415,12.923,10.875,12.923Z" transform="translate(0 -0.715)"/><path class="h" d="M10.875,17.581c4.572,0,8.28-1.486,9.024-3.4V11.105c-.744,1.911-4.572,3.4-9.024,3.4S2.7,13.121,1.851,11.212V14.29C2.7,16.2,6.415,17.581,10.875,17.581Z" transform="translate(0 -1.232)"/><path class="h" d="M10.875,19.277c-4.459,0-8.175-1.379-9.024-3.29v2.972c0,2.23,4.034,4.141,9.024,4.141s9.024-1.8,9.024-4.141V15.879C19.155,17.792,15.439,19.277,10.875,19.277Z" transform="translate(0 -1.762)"/></g><g transform="translate(83.535 490.043)"><path class="i" d="M19.9,4.034C19.9,1.8,15.864,0,10.875,0S1.851,1.8,1.851,4.034v.538A4.115,4.115,0,0,0,4.5,6.8a.1.1,0,0,1,.107.107c.107.107.319.107.425.212.107,0,.212.107.425.107.107,0,.107,0,.212.107.107,0,.319.107.425.107H6.31a6.768,6.768,0,0,0,.744.212c.212,0,.425.107.637.107H7.8c.212,0,.425.107.637.107h.212a1.346,1.346,0,0,1,.637.107h1.593c4.459,0,8.174-1.381,9.024-3.29V4.034Z"/><path class="i" d="M10.875,12.923c4.572,0,8.28-1.486,9.024-3.4V6.554c-.849,1.911-4.572,3.29-9.024,3.29-4.572,0-8.28-1.486-9.024-3.4V9.633C2.7,11.544,6.415,12.923,10.875,12.923Z" transform="translate(0 -0.715)"/><path class="i" d="M10.875,17.581c4.572,0,8.28-1.486,9.024-3.4V11.105c-.744,1.911-4.572,3.4-9.024,3.4S2.7,13.121,1.851,11.212V14.29C2.7,16.2,6.415,17.581,10.875,17.581Z" transform="translate(0 -1.232)"/><path class="i" d="M10.875,19.277c-4.459,0-8.175-1.379-9.024-3.29v2.972c0,2.23,4.034,4.141,9.024,4.141s9.024-1.8,9.024-4.141V15.879C19.155,17.792,15.439,19.277,10.875,19.277Z" transform="translate(0 -1.762)"/></g></g></g></g></svg>