<svg xmlns="http://www.w3.org/2000/svg" xmlns:xlink="http://www.w3.org/1999/xlink" width="54" height="62" viewBox="0 0 54 62"><defs><style>.a,.b{fill:#fff;}.b{stroke:#707070;}.c{clip-path:url(#a);}.d{fill:url(#b);}.e{fill:url(#f);}.f{clip-path:url(#l);}.g,.h{stroke:rgba(0,0,0,0);stroke-miterlimit:10;}.g{opacity:0.25;fill:url(#m);}.h{fill:url(#n);}.i{filter:url(#j);}.j{filter:url(#g);}.k{filter:url(#d);}</style><clipPath id="a"><rect class="a" width="54" height="62" transform="translate(62 604)"/></clipPath><linearGradient id="b" x1="0.5" y1="1" x2="0.5" gradientUnits="objectBoundingBox"><stop offset="0" stop-color="#1c5fad"/><stop offset="1" stop-color="#1c5fad" stop-opacity="0"/></linearGradient><filter id="d" x="-21" y="-4.443" width="95.54" height="76.194" filterUnits="userSpaceOnUse"><feOffset dy="5" input="SourceAlpha"/><feGaussianBlur stdDeviation="10" result="e"/><feFlood flood-color="#1981f2"/><feComposite operator="in" in2="e"/><feComposite in="SourceGraphic"/></filter><linearGradient id="f" x1="0.5" y1="0.375" x2="0.5" y2="1" gradientUnits="objectBoundingBox"><stop offset="0" stop-color="#43e2ff" stop-opacity="0"/><stop offset="1" stop-color="#43e2ff"/></linearGradient><filter id="g" x="-4.5" y="3.4" width="62.409" height="36.594" filterUnits="userSpaceOnUse"><feOffset dy="2" input="SourceAlpha"/><feGaussianBlur stdDeviation="2.5" result="h"/><feFlood flood-color="#002f76"/><feComposite operator="in" in2="h"/><feComposite in="SourceGraphic"/></filter><filter id="j" x="1.5" y="15.057" width="50.54" height="31.196" filterUnits="userSpaceOnUse"><feOffset dy="2" input="SourceAlpha"/><feGaussianBlur stdDeviation="2.5" result="k"/><feFlood flood-color="#002f76"/><feComposite operator="in" in2="k"/><feComposite in="SourceGraphic"/></filter><clipPath id="l"><rect class="b" width="43.666" height="14.555"/></clipPath><linearGradient id="m" x1="0.5" x2="0.5" y2="1" gradientUnits="objectBoundingBox"><stop offset="0" stop-color="#2792ff"/><stop offset="1" stop-color="#41c1fd"/></linearGradient><linearGradient id="n" x1="0.5" x2="0.5" y2="1" gradientUnits="objectBoundingBox"><stop offset="0" stop-color="#2792ff"/><stop offset="1" stop-color="#41dbfb"/></linearGradient></defs><g class="c" transform="translate(-62 -604)"><g transform="translate(-5 -10.823)"><path class="d" d="M332.011,4531.6l16.883-7.689a13.239,13.239,0,0,1,9.647,0l16.883,7.689c2.664,1.214,2.664,3.182,0,4.394l-16.883,7.691a13.239,13.239,0,0,1-9.647,0L332.011,4536C329.348,4534.787,329.348,4532.819,332.011,4531.6Z" transform="translate(-260.013 -3899.282)"/><g class="k" transform="matrix(1, 0, 0, 1, 67, 614.82)"><path class="d" d="M331.511,4529.457l12.656-5.769a9.934,9.934,0,0,1,7.232,0l12.656,5.769c2,.909,2,2.385,0,3.293l-12.656,5.769a9.929,9.929,0,0,1-7.232,0l-12.656-5.769C329.514,4531.841,329.514,4530.366,331.511,4529.457Z" transform="translate(-321.01 -4502.45)"/></g><g class="j" transform="matrix(1, 0, 0, 1, 67, 614.82)"><path class="e" d="M353.718,4524.042a11.346,11.346,0,0,0-4.5.839l-16.883,7.69c-1.05.478-1.431,1-1.431,1.233s.381.752,1.431,1.231l16.883,7.69a12.478,12.478,0,0,0,8.993,0l16.883-7.69c1.05-.479,1.431-1,1.431-1.231s-.381-.755-1.431-1.233l-16.883-7.69a11.346,11.346,0,0,0-4.5-.839m0-1.037a12.044,12.044,0,0,1,4.824.911l16.883,7.689c2.664,1.214,2.664,3.18,0,4.395l-16.883,7.689a13.249,13.249,0,0,1-9.647,0L332.011,4536c-2.664-1.214-2.664-3.181,0-4.395l16.883-7.689A12.043,12.043,0,0,1,353.718,4523Z" transform="translate(-327.01 -4514.1)"/></g><g class="i" transform="matrix(1, 0, 0, 1, 67, 614.82)"><path class="e" d="M347.783,4523.782a8.479,8.479,0,0,0-3.371.63l-12.656,5.768c-.787.358-1.072.749-1.072.923s.286.564,1.072.924l12.656,5.768a9.348,9.348,0,0,0,6.742,0l12.656-5.768c.787-.36,1.073-.749,1.073-.924s-.285-.565-1.073-.923l-12.656-5.768a8.479,8.479,0,0,0-3.371-.63m0-.777a9.02,9.02,0,0,1,3.616.683l12.656,5.768c2,.911,2,2.385,0,3.295l-12.656,5.768a9.929,9.929,0,0,1-7.232,0l-12.656-5.768c-2-.91-2-2.384,0-3.295l12.656-5.768A9.02,9.02,0,0,1,347.783,4523Z" transform="translate(-321.01 -4502.45)"/></g><g transform="translate(-32.385 12.221)"><path class="g" d="M19.4,4.968a7.995,7.995,0,0,0-14.8,0A6,6,0,0,0,6,16.8H17.995A6,6,0,0,0,19.4,4.968Z" transform="translate(113.385 602.603)"/><path class="h" d="M-3364-10286.2h-12a6,6,0,0,1-5.954-5.29,6,6,0,0,1,4.556-6.537,7.983,7.983,0,0,1,2.944-3.611A7.963,7.963,0,0,1-3370-10303a7.966,7.966,0,0,1,4.458,1.358,7.967,7.967,0,0,1,2.943,3.611,6,6,0,0,1,4.559,6.537A6,6,0,0,1-3364-10286.2Zm-9.109-8.044-.034,3.68,6.252.057.034-3.68-6.252-.057Zm3.107-3.349a1.35,1.35,0,0,0-1.344,1.268l-.008.876,2.759.026.013-.882a1.342,1.342,0,0,0-1.344-1.288H-3370Zm.026,6.661a.645.645,0,0,1-.644-.582v-.267l-.034-.028a1.043,1.043,0,0,1-.383-1.1,1.112,1.112,0,0,1,1.06-.791,1.105,1.105,0,0,1,1.058.791,1.036,1.036,0,0,1-.377,1.1l-.037.028v.267A.645.645,0,0,1-3369.974-10290.936Z" transform="translate(3497.385 10906.605)"/></g></g></g></svg>