<svg xmlns="http://www.w3.org/2000/svg" xmlns:xlink="http://www.w3.org/1999/xlink" width="54" height="62" viewBox="0 0 54 62"><defs><style>.a,.b{fill:#fff;}.b{stroke:#707070;}.c{clip-path:url(#a);}.d{fill:url(#b);}.e{fill:url(#f);}.f{clip-path:url(#l);}.g,.h{stroke:rgba(0,0,0,0);stroke-miterlimit:10;}.g{opacity:0.25;fill:url(#m);}.h{fill:url(#n);}.i{filter:url(#j);}.j{filter:url(#g);}.k{filter:url(#d);}</style><clipPath id="a"><rect class="a" width="54" height="62" transform="translate(69 545)"/></clipPath><linearGradient id="b" x1="0.5" y1="1" x2="0.5" gradientUnits="objectBoundingBox"><stop offset="0" stop-color="#1c5fad"/><stop offset="1" stop-color="#1c5fad" stop-opacity="0"/></linearGradient><filter id="d" x="-21" y="-5.408" width="95.54" height="76.194" filterUnits="userSpaceOnUse"><feOffset dy="5" input="SourceAlpha"/><feGaussianBlur stdDeviation="10" result="e"/><feFlood flood-color="#1981f2"/><feComposite operator="in" in2="e"/><feComposite in="SourceGraphic"/></filter><linearGradient id="f" x1="0.5" y1="0.375" x2="0.5" y2="1" gradientUnits="objectBoundingBox"><stop offset="0" stop-color="#43e2ff" stop-opacity="0"/><stop offset="1" stop-color="#43e2ff"/></linearGradient><filter id="g" x="-4.5" y="2.435" width="62.409" height="36.594" filterUnits="userSpaceOnUse"><feOffset dy="2" input="SourceAlpha"/><feGaussianBlur stdDeviation="2.5" result="h"/><feFlood flood-color="#002f76"/><feComposite operator="in" in2="h"/><feComposite in="SourceGraphic"/></filter><filter id="j" x="1.5" y="14.092" width="50.54" height="31.196" filterUnits="userSpaceOnUse"><feOffset dy="2" input="SourceAlpha"/><feGaussianBlur stdDeviation="2.5" result="k"/><feFlood flood-color="#002f76"/><feComposite operator="in" in2="k"/><feComposite in="SourceGraphic"/></filter><clipPath id="l"><rect class="b" width="43.666" height="14.555"/></clipPath><linearGradient id="m" x1="0.5" x2="0.5" y2="1" gradientUnits="objectBoundingBox"><stop offset="0" stop-color="#2792ff"/><stop offset="1" stop-color="#41c1fd"/></linearGradient><linearGradient id="n" x1="0.5" x2="0.5" y2="1" gradientUnits="objectBoundingBox"><stop offset="0" stop-color="#2792ff"/><stop offset="1" stop-color="#41dbfb"/></linearGradient></defs><g class="c" transform="translate(-69 -545)"><g transform="translate(2 -8.788)"><path class="d" d="M332.011,4531.6l16.883-7.689a13.239,13.239,0,0,1,9.647,0l16.883,7.689c2.664,1.214,2.664,3.182,0,4.394l-16.883,7.691a13.239,13.239,0,0,1-9.647,0L332.011,4536C329.348,4534.787,329.348,4532.819,332.011,4531.6Z" transform="translate(-260.013 -3961.282)"/><g class="k" transform="matrix(1, 0, 0, 1, 67, 553.79)"><path class="d" d="M331.511,4529.457l12.656-5.769a9.934,9.934,0,0,1,7.232,0l12.656,5.769c2,.909,2,2.385,0,3.293l-12.656,5.769a9.929,9.929,0,0,1-7.232,0l-12.656-5.769C329.514,4531.841,329.514,4530.366,331.511,4529.457Z" transform="translate(-321.01 -4503.41)"/></g><g class="j" transform="matrix(1, 0, 0, 1, 67, 553.79)"><path class="e" d="M353.718,4524.042a11.346,11.346,0,0,0-4.5.839l-16.883,7.69c-1.05.478-1.431,1-1.431,1.233s.381.752,1.431,1.231l16.883,7.69a12.478,12.478,0,0,0,8.993,0l16.883-7.69c1.05-.479,1.431-1,1.431-1.231s-.381-.755-1.431-1.233l-16.883-7.69a11.346,11.346,0,0,0-4.5-.839m0-1.037a12.044,12.044,0,0,1,4.824.911l16.883,7.689c2.664,1.214,2.664,3.18,0,4.395l-16.883,7.689a13.249,13.249,0,0,1-9.647,0L332.011,4536c-2.664-1.214-2.664-3.181,0-4.395l16.883-7.689A12.043,12.043,0,0,1,353.718,4523Z" transform="translate(-327.01 -4515.07)"/></g><g class="i" transform="matrix(1, 0, 0, 1, 67, 553.79)"><path class="e" d="M347.783,4523.782a8.479,8.479,0,0,0-3.371.63l-12.656,5.768c-.787.358-1.072.749-1.072.923s.286.564,1.072.924l12.656,5.768a9.348,9.348,0,0,0,6.742,0l12.656-5.768c.787-.36,1.073-.749,1.073-.924s-.285-.565-1.073-.923l-12.656-5.768a8.479,8.479,0,0,0-3.371-.63m0-.777a9.02,9.02,0,0,1,3.616.683l12.656,5.768c2,.911,2,2.385,0,3.295l-12.656,5.768a9.929,9.929,0,0,1-7.232,0l-12.656-5.768c-2-.91-2-2.384,0-3.295l12.656-5.768A9.02,9.02,0,0,1,347.783,4523Z" transform="translate(-321.01 -4503.41)"/></g><g transform="translate(-4.974 -0.872)"><path class="g" d="M26.21,21.335H20.483a.713.713,0,0,1-.716-.709V16.549a.713.713,0,0,1,.716-.709H26.21a.713.713,0,0,1,.716.709v4.077a.712.712,0,0,1-.716.709Zm-5.548-1.064C20.662,20.314,20.662,19.109,20.661,20.271Zm4.654-.177a.355.355,0,0,1,0-.709c.2,0,.316.54.249.607a.354.354,0,0,1-.253.1Zm0-2.3a.354.354,0,1,1,.253-.1.354.354,0,0,1-.253.1Zm-6.264-1.773v5.307a1.75,1.75,0,0,1-.179.011H8.134a1.8,1.8,0,0,1-.385-.043,5.8,5.8,0,0,1-.688.043A5.67,5.67,0,0,1,6.471,10.02a7.184,7.184,0,0,1,13.294,1.758,4.824,4.824,0,0,1,4.258,3.353H19.946a.891.891,0,0,0-.895.886Z" transform="translate(83.642 548.388)"/><path class="h" d="M26.21,21.335H20.483a.713.713,0,0,1-.716-.709V16.549a.713.713,0,0,1,.716-.709H26.21a.713.713,0,0,1,.716.709v4.077a.712.712,0,0,1-.716.709ZM26.031,16.9a.178.178,0,0,0-.179-.177H20.84a.178.178,0,0,0-.179.177v1.064a.178.178,0,0,0,.179.177h5.011a.178.178,0,0,0,.179-.177V16.9Zm0,2.3a.178.178,0,0,0-.179-.177H20.84a.178.178,0,0,0-.179.177v1.064a.178.178,0,0,0,.179.177h5.011a.178.178,0,0,0,.179-.177V19.208Zm-.716.886a.354.354,0,1,1,.253-.1.355.355,0,0,1-.253.1Zm0-2.3a.354.354,0,1,1,.253-.1.354.354,0,0,1-.253.1Zm-6.264-1.773v5.307a1.75,1.75,0,0,1-.179.011H8.134a1.8,1.8,0,0,1-.385-.043,5.8,5.8,0,0,1-.688.043A5.67,5.67,0,0,1,6.471,10.02a7.184,7.184,0,0,1,13.294,1.758,4.824,4.824,0,0,1,4.258,3.353H19.946a.891.891,0,0,0-.895.886Z" transform="translate(85.134 549.75)"/></g></g></g></svg>