<svg xmlns="http://www.w3.org/2000/svg" xmlns:xlink="http://www.w3.org/1999/xlink" width="54" height="54" viewBox="0 0 54 54"><defs><style>.a{fill:#fff;}.b{clip-path:url(#a);}.c{opacity:0.995;fill:url(#b);}.d{filter:url(#c);}</style><clipPath id="a"><rect class="a" width="54" height="54" transform="translate(375 757)"/></clipPath><linearGradient id="b" x1="0.5" x2="0.5" y2="1" gradientUnits="objectBoundingBox"><stop offset="0" stop-color="#45f7ff"/><stop offset="1" stop-color="#2791e4"/></linearGradient><filter id="c" x="-10.408" y="-10.408" width="74.816" height="74.816" filterUnits="userSpaceOnUse"><feOffset input="SourceAlpha"/><feGaussianBlur stdDeviation="8" result="d"/><feFlood flood-color="#40e9fb" flood-opacity="0.702"/><feComposite operator="in" in2="d"/><feComposite in="SourceGraphic"/></filter></defs><g class="b" transform="translate(-375 -757)"><g class="d" transform="matrix(1, 0, 0, 1, 375, 757)"><path class="c" d="M11.711,22.186a1.257,1.257,0,1,0-1.257-1.257,1.257,1.257,0,0,0,1.257,1.257Zm0,1.676a2.933,2.933,0,1,1,2.933-2.933,2.933,2.933,0,0,1-2.933,2.933Zm6.7-11.732h5.866a1.257,1.257,0,1,1,0,2.514H18.415a1.257,1.257,0,1,1,0-2.514Zm0,7.542h5.866a1.257,1.257,0,1,1,0,2.514H18.415a1.257,1.257,0,1,1,0-2.514ZM9.032,6.189A2.844,2.844,0,0,0,6.188,9.032V25.284a2.844,2.844,0,0,0,2.844,2.844H25.284a2.844,2.844,0,0,0,2.844-2.844V9.032a2.844,2.844,0,0,0-2.844-2.844H9.032Zm0-2.439H25.284a5.282,5.282,0,0,1,5.282,5.282V25.284a5.282,5.282,0,0,1-5.282,5.282H9.032A5.282,5.282,0,0,1,3.75,25.284V9.032A5.282,5.282,0,0,1,9.032,3.75Zm5.085,7.077a1.006,1.006,0,1,1,1.4,1.448l-3.381,3.511a1.006,1.006,0,0,1-1.4,0L8.564,13.7a1.006,1.006,0,1,1,1.394-1.45l1.475,1.419Z" transform="translate(9.84 9.84)"/></g></g></svg>