<svg xmlns="http://www.w3.org/2000/svg" width="30" height="30" viewBox="0 0 30 30"><defs><style>.a{fill:none;}.b{opacity:0.633;}.c{fill:#a0ccff;}</style></defs><g transform="translate(-401 -946)"><rect class="a" width="30" height="30" transform="translate(401 946)"/><g class="b" transform="translate(402.633 948.06)"><path class="c" d="M23.87,7,17.685.326A1.234,1.234,0,0,0,17.034,0H5.314A2.883,2.883,0,0,0,2.547,2.93V22.951a2.784,2.784,0,0,0,2.767,2.93H21.429a2.784,2.784,0,0,0,2.767-2.93V7.65A.65.65,0,0,0,23.87,7ZM9.221,24.09V22.951a.938.938,0,0,1,.977-.977h6.511a1.05,1.05,0,0,1,.977.977V24.09Zm13.185-.977a.938.938,0,0,1-.977.977H19.313V22.951a2.784,2.784,0,0,0-2.767-2.93H10.035a2.784,2.784,0,0,0-2.767,2.93V24.09H5.314a1.05,1.05,0,0,1-.977-.977V2.93a.938.938,0,0,1,.977-.977H16.708l5.7,6.185Zm0,0"/><path class="c" d="M9.021,5.472c-.488,0-.814.326-.814.977v6.185A.9.9,0,1,0,10,12.8V6.448A.863.863,0,0,0,9.021,5.472Zm2.767,0a1.05,1.05,0,0,0-.977.977v6.185a.9.9,0,1,0,1.79.163V6.448A.759.759,0,0,0,11.789,5.472Zm0,0" transform="translate(-0.777 -0.751)"/></g></g></svg>