<svg xmlns="http://www.w3.org/2000/svg" xmlns:xlink="http://www.w3.org/1999/xlink" width="54" height="54" viewBox="0 0 54 54"><defs><style>.a{fill:#fff;}.b{clip-path:url(#a);}.c{opacity:0.995;}.d{fill:url(#b);}.e{filter:url(#f);}.f{filter:url(#c);}</style><clipPath id="a"><rect class="a" width="54" height="54" transform="translate(225 757)"/></clipPath><linearGradient id="b" x1="0.5" x2="0.5" y2="1" gradientUnits="objectBoundingBox"><stop offset="0" stop-color="#45f7ff"/><stop offset="1" stop-color="#2791e4"/></linearGradient><filter id="c" x="-9.706" y="-9.663" width="73.412" height="73.326" filterUnits="userSpaceOnUse"><feOffset input="SourceAlpha"/><feGaussianBlur stdDeviation="8" result="d"/><feFlood flood-color="#40e9fb" flood-opacity="0.702"/><feComposite operator="in" in2="d"/><feComposite in="SourceGraphic"/></filter><filter id="f" x="-9.936" y="-9.923" width="73.878" height="73.885" filterUnits="userSpaceOnUse"><feOffset input="SourceAlpha"/><feGaussianBlur stdDeviation="10" result="g"/><feFlood flood-color="#40e9fb" flood-opacity="0.702"/><feComposite operator="in" in2="g"/><feComposite in="SourceGraphic"/></filter></defs><g class="b" transform="translate(-225 -757)"><g class="c" transform="translate(233.448 765.365)"><g class="f" transform="matrix(1, 0, 0, 1, -8.45, -8.37)"><path class="d" d="M28.948,8.282V28.988H8.156V8.282H28.948m-23.1-.673V29.661A1.636,1.636,0,0,0,7.483,31.3H29.621a1.636,1.636,0,0,0,1.637-1.637V7.609a1.636,1.636,0,0,0-1.637-1.637H7.483A1.636,1.636,0,0,0,5.846,7.609Z" transform="translate(8.45 8.37)"/></g><g class="e" transform="matrix(1, 0, 0, 1, -8.45, -8.37)"><path class="d" d="M13.825,26.633a1.166,1.166,0,0,1-1.167-1.167V20.839a1.167,1.167,0,1,1,2.334,0v4.627A1.17,1.17,0,0,1,13.825,26.633Zm5.767,0a1.166,1.166,0,0,1-1.167-1.167V13.915a1.167,1.167,0,1,1,2.334,0V25.466A1.168,1.168,0,0,1,19.592,26.633Zm5.777,0A1.166,1.166,0,0,1,24.2,25.466V18.535a1.167,1.167,0,0,1,2.334,0v6.931A1.17,1.17,0,0,1,25.369,26.633Z" transform="translate(7.41 7.33)"/></g></g></g></svg>