<svg xmlns="http://www.w3.org/2000/svg" xmlns:xlink="http://www.w3.org/1999/xlink" width="54" height="54" viewBox="0 0 54 54"><defs><style>.a{fill:#fff;}.b{clip-path:url(#a);}.c{opacity:0.995;fill:url(#b);}.d{filter:url(#c);}</style><clipPath id="a"><rect class="a" width="54" height="54" transform="translate(535 757)"/></clipPath><linearGradient id="b" x1="0.5" x2="0.5" y2="1" gradientUnits="objectBoundingBox"><stop offset="0" stop-color="#45f7ff"/><stop offset="1" stop-color="#2791e4"/></linearGradient><filter id="c" x="-9.823" y="-9.812" width="73.645" height="73.624" filterUnits="userSpaceOnUse"><feOffset input="SourceAlpha"/><feGaussianBlur stdDeviation="8" result="d"/><feFlood flood-color="#40e9fb" flood-opacity="0.702"/><feComposite operator="in" in2="d"/><feComposite in="SourceGraphic"/></filter></defs><g class="b" transform="translate(-535 -757)"><g class="d" transform="matrix(1, 0, 0, 1, 535, 757)"><path class="c" d="M16.626,2.848a6.2,6.2,0,0,1,5.882,5.169H20.784l2.785,4.143,2.785-4.143H24.433A8.145,8.145,0,0,0,16.823.8a1.016,1.016,0,0,0-1.057,1.025,1.055,1.055,0,0,0,.86,1.025ZM12.314.755H2.63a1.016,1.016,0,0,0-.979,1.068v9.226a1.016,1.016,0,0,0,.979,1.068h9.685a1.016,1.016,0,0,0,.979-1.068V1.823A1.016,1.016,0,0,0,12.314.755Zm-.943,9.312h-7.8V2.8h7.8l0,7.262Zm-.943,14.179a6.193,6.193,0,0,1-6-6.194H6.271l-2.778-4.14L.709,18.052H2.551A8.164,8.164,0,0,0,10.236,26.3a1.032,1.032,0,0,0,.194-2.05Zm14.04-9.269H14.784a1.016,1.016,0,0,0-.979,1.068v9.269a1.015,1.015,0,0,0,.979,1.065h9.685a1.015,1.015,0,0,0,.978-1.065V16.045a1.044,1.044,0,0,0-.978-1.068Zm-.943,9.312h-7.8V17.07h7.8v7.219Zm0,0" transform="translate(13.47 13.43)"/></g></g></svg>