<svg xmlns="http://www.w3.org/2000/svg" width="30" height="30" viewBox="0 0 30 30"><defs><style>.a{fill:none;}.b{fill:#a0ccff;opacity:0.633;}</style></defs><g transform="translate(-111 -945)"><rect class="a" width="30" height="30" transform="translate(111 945)"/><path class="b" d="M29.947,19.406v1.916H27.072V24.2A2.875,2.875,0,0,1,24.2,27.072H21.323v2.875H19.406V27.072H16.532v2.875H14.615V27.072H11.74v2.875H9.824V27.072H6.949A2.875,2.875,0,0,1,4.075,24.2V21.323H1.2V19.406H4.075V16.532H1.2V14.615H4.075V11.74H1.2V9.824H4.075V6.949A2.875,2.875,0,0,1,6.949,4.075H9.824V1.2H11.74V4.075h2.875V1.2h1.916V4.075h2.875V1.2h1.916V4.075H24.2a2.875,2.875,0,0,1,2.875,2.875V9.824h2.875V11.74H27.072v2.875h2.875v1.916H27.072v2.875ZM25.156,6.949a.958.958,0,0,0-.958-.958H6.949a.958.958,0,0,0-.958.958V24.2a.958.958,0,0,0,.958.958H24.2a.958.958,0,0,0,.958-.958ZM10.782,10.782h9.582v9.582H10.782ZM12.7,18.448h3.833v1.916h1.916V18.448h1.916V16.532H18.448V12.7H12.7Z" transform="translate(110.427 944.427)"/></g></svg>