<svg xmlns="http://www.w3.org/2000/svg" xmlns:xlink="http://www.w3.org/1999/xlink" width="54" height="54" viewBox="0 0 54 54"><defs><style>.a{fill:#fff;}.b{clip-path:url(#a);}.c{opacity:0.995;}.d{fill:url(#b);}.e{filter:url(#f);}.f{filter:url(#c);}</style><clipPath id="a"><rect class="a" width="54" height="54" transform="translate(81 764)"/></clipPath><linearGradient id="b" x1="0.5" x2="0.5" y2="1" gradientUnits="objectBoundingBox"><stop offset="0" stop-color="#45f7ff"/><stop offset="1" stop-color="#2791e4"/></linearGradient><filter id="c" x="-9.999" y="-9.001" width="73.149" height="72.948" filterUnits="userSpaceOnUse"><feOffset input="SourceAlpha"/><feGaussianBlur stdDeviation="8" result="d"/><feFlood flood-color="#40e9fb" flood-opacity="0.702"/><feComposite operator="in" in2="d"/><feComposite in="SourceGraphic"/></filter><filter id="f" x="7.213" y="-10.263" width="61.936" height="61.936" filterUnits="userSpaceOnUse"><feOffset input="SourceAlpha"/><feGaussianBlur stdDeviation="10" result="g"/><feFlood flood-color="#40e9fb" flood-opacity="0.702"/><feComposite operator="in" in2="g"/><feComposite in="SourceGraphic"/></filter></defs><g class="b" transform="translate(-81 -764)"><g class="c" transform="translate(91.109 774.824)"><g class="f" transform="matrix(1, 0, 0, 1, -10.11, -10.82)"><path class="d" d="M27.1,4.174H18.986a1.934,1.934,0,0,0-1.933,1.933v8.118a1.934,1.934,0,0,0,1.933,1.933H27.1a1.894,1.894,0,0,0,1.933-1.847v-1.48a.968.968,0,1,0-1.936,0v1.4H18.986V6.111H27.1v.866a.968.968,0,0,0,1.936,0V6A1.887,1.887,0,0,0,27.1,4.174Zm-13.063,0H5.92A1.934,1.934,0,0,0,3.987,6.107v8.118A1.934,1.934,0,0,0,5.92,16.158h8.121a1.934,1.934,0,0,0,1.933-1.933V6.111A1.937,1.937,0,0,0,14.041,4.174Zm0,10.054H5.92V6.111h8.121v8.118Zm-.1,2.907H5.824a1.934,1.934,0,0,0-1.933,1.933V27.19a1.934,1.934,0,0,0,1.933,1.933h8.118a1.934,1.934,0,0,0,1.933-1.933V19.072A1.935,1.935,0,0,0,13.942,17.136Zm0,10.054H5.824V19.072h8.118ZM27.008,17.136H18.887a1.934,1.934,0,0,0-1.933,1.933V27.19a1.934,1.934,0,0,0,1.933,1.933h8.118a1.934,1.934,0,0,0,1.933-1.933V19.072A1.932,1.932,0,0,0,27.008,17.136Zm0,10.054H18.887V19.072h8.118V27.19Z" transform="translate(10.11 10.82)"/></g><g class="e" transform="matrix(1, 0, 0, 1, -10.11, -10.82)"><path class="d" d="M32.55,10.8m-.968,0a.968.968,0,1,0,.968-.968.968.968,0,0,0-.968.968Z" transform="translate(5.63 9.91)"/></g></g></g></svg>