<svg xmlns="http://www.w3.org/2000/svg" xmlns:xlink="http://www.w3.org/1999/xlink" width="590" height="46" viewBox="0 0 590 46"><defs><style>.a{fill:url(#a);}.b{fill:none;stroke:#0085f7;opacity:0.2;}.c{fill:url(#c);}.d{fill:url(#d);}.e{fill:#3ba0fa;}</style><linearGradient id="a" x1="1" y1="0.5" x2="0" y2="0.5" gradientUnits="objectBoundingBox"><stop offset="0" stop-color="#3ca5ff"/><stop offset="1" stop-color="#3ca5ff" stop-opacity="0"/></linearGradient><linearGradient id="c" x1="1" x2="0" gradientUnits="objectBoundingBox"><stop offset="0" stop-color="#338ff9" stop-opacity="0"/><stop offset="1" stop-color="#338ff9" stop-opacity="0.6"/><stop offset="1" stop-color="#338ff9" stop-opacity="0"/></linearGradient><linearGradient id="d" x1="0.061" y1="0.372" x2="0.953" y2="0.5" gradientUnits="objectBoundingBox"><stop offset="0" stop-color="#53caff"/><stop offset="1" stop-color="#53caff" stop-opacity="0"/></linearGradient></defs><path class="a" d="M729,623v28.409l13.714-13.715Z" transform="translate(-718.857 -613.704)"/><path class="a" d="M730,632v13.714l6.857-6.621Z" transform="translate(-718.857 -614.786)"/><line class="b" x2="590" transform="translate(0 45)"/><rect class="c" width="555" height="28" transform="translate(35 9)"/><line class="b" x2="590" transform="translate(0 1)"/><path class="d" d="M80.055,9l9.813-9H94L84.187,9ZM68.692,9l9.814-9h4.132L72.825,9ZM57.329,9l9.814-9h4.132L61.461,9ZM45.967,9,55.78,0h4.132L50.1,9ZM34.088,9,43.9,0h4.132L38.22,9ZM22.725,9l9.814-9h4.132L26.857,9ZM11.363,9l9.814-9h4.131L15.494,9ZM0,9,9.813,0h4.132L4.132,9Z" transform="translate(496 19)"/><rect class="e" width="8" height="2" transform="translate(0 44)"/><rect class="e" width="8" height="2"/></svg>
