<svg xmlns="http://www.w3.org/2000/svg" preserveAspectRatio="none" xmlns:xlink="http://www.w3.org/1999/xlink" width="391.181" height="336.577" viewBox="0 0 391.181 336.577"><defs><style>.a{fill:#021e5f;}.b{fill:#6fc2ff;}.c{fill:url(#e);}.d,.e{stroke:none;}.e{fill:#6fc2fc;}.f{filter:url(#f);}.g{filter:url(#c);}.h{filter:url(#a);}</style><filter id="a" x="3.424" y="0" width="31.04" height="31.04" filterUnits="userSpaceOnUse"><feOffset dy="3" input="SourceAlpha"/><feGaussianBlur stdDeviation="3" result="b"/><feFlood flood-color="#6fc2ff" flood-opacity="0.486"/><feComposite operator="in" in2="b"/><feComposite in="SourceGraphic"/></filter><filter id="c" x="360.141" y="305.537" width="31.04" height="31.04" filterUnits="userSpaceOnUse"><feOffset dy="3" input="SourceAlpha"/><feGaussianBlur stdDeviation="3" result="d"/><feFlood flood-color="#6fc2ff" flood-opacity="0.486"/><feComposite operator="in" in2="d"/><feComposite in="SourceGraphic"/></filter><linearGradient id="e" x1="0.012" y1="-0.384" x2="0.981" y2="0.5" gradientUnits="objectBoundingBox"><stop offset="0" stop-color="#a7eff6" stop-opacity="0"/><stop offset="0.208" stop-color="#a7eff6"/><stop offset="0.518" stop-color="#a7eff6" stop-opacity="0.502"/><stop offset="1" stop-color="#a7eff6" stop-opacity="0"/></linearGradient><filter id="f" x="30.923" y="3.483" width="254" height="47" filterUnits="userSpaceOnUse"><feOffset input="SourceAlpha"/><feGaussianBlur stdDeviation="1.5" result="g"/><feFlood flood-color="#2bebff"/><feComposite operator="in" in2="g"/><feComposite in="SourceGraphic"/></filter></defs><g transform="translate(-814.539 -644)"><g class="a" transform="translate(826.002 650.34)"><path class="d" d="M 345.5705261230469 318.5924072265625 L 183.8697052001953 318.4986877441406 L 176.0636596679688 318.4986877441406 L 167.6343536376953 318.4881286621094 L 2.294653415679932 318.3820495605469 L 2.294653415679932 132.4724273681641 L 2.294653415679932 132.2673797607422 L 2.15065336227417 132.1213226318359 L -10.76298713684082 119.0269927978516 L 2.153253316879272 105.7330780029297 L 2.294653415679932 105.5875778198242 L 2.294653415679932 105.3846740722656 L 2.294653415679932 23.53575325012207 L 25.36033058166504 0.3152835965156555 L 368.2183532714844 0.1604034900665283 L 368.2183532714844 22.40582656860352 L 368.2183532714844 296.8657836914062 L 345.5705261230469 318.5924072265625 Z"/><path class="e" d="M 367.7183532714844 0.66058349609375 L 25.56845092773438 0.815185546875 L 2.794647216796875 23.74188232421875 L 2.794647216796875 105.7904205322266 L -10.06329345703125 119.0243835449219 L 2.794647216796875 132.0622711181641 L 2.794647216796875 317.8823547363281 L 167.6349487304688 317.9880676269531 L 176.0636596679688 317.9986267089844 L 183.8700103759766 317.9986267089844 L 345.3695373535156 318.0922546386719 L 367.7183532714844 296.6525268554688 L 367.7183532714844 0.66058349609375 M 368.7183532714844 -0.339874267578125 L 368.7183532714844 297.0789794921875 L 345.7714538574219 319.0924682617188 L 183.8694000244141 318.9986267089844 L 176.0636596679688 318.9986267089844 L 167.6336975097656 318.9880676269531 L 1.794647216796875 318.8817138671875 L 1.794647216796875 132.4724273681641 L -11.462646484375 119.0296325683594 L 1.794647216796875 105.3846282958984 L 1.794647216796875 23.32962036132812 L 25.152099609375 -0.18463134765625 L 368.7183532714844 -0.339874267578125 Z"/></g><g class="h" transform="matrix(1, 0, 0, 1, 814.54, 644)"><path class="b" d="M0,0,15.834.022l0,2.581L0,2.581Z" transform="translate(12.42 17.2) rotate(-45)"/></g><g class="g" transform="matrix(1, 0, 0, 1, 814.54, 644)"><path class="b" d="M0,0,15.834.022l0,2.581L0,2.581Z" transform="translate(369.14 322.74) rotate(-45)"/></g><g transform="translate(235.963 435.982)"><g class="f" transform="matrix(1, 0, 0, 1, 578.58, 208.02)"><path class="c" d="M4878.064,4861.881c-8.8,0-15.2-1.7-19.535-5.166-4.2-3.364-5.856-7.918-7.187-11.578-2.82-7.752-5.8-20.867-5.827-21l.968-.259c.03.131,2.992,13.175,5.786,20.858a39.956,39.956,0,0,0,2.511,5.856,17.306,17.306,0,0,0,4.34,5.248c4.154,3.327,10.361,4.953,18.936,4.953q.983,0,2.008-.028c21.574-.6,209.064-.006,210.45,0l0,1.083c-.922,0-112.034-.268-159.209-.268-23.768,0-43.989.067-51.211.268Q4879.057,4861.881,4878.064,4861.881Z" transform="translate(-4810.09 -4815.9)"/></g></g></g></svg>
