<svg xmlns="http://www.w3.org/2000/svg" xmlns:xlink="http://www.w3.org/1999/xlink" width="165" height="52.004" viewBox="0 0 165 52.004"><defs><style>.a{fill:#021e5f;}.b{fill:url(#c);}.c{filter:url(#d);}.d{filter:url(#a);}</style><filter id="a" x="1.5" y="0.004" width="162" height="52" filterUnits="userSpaceOnUse"><feOffset input="SourceAlpha"/><feGaussianBlur stdDeviation="3" result="b"/><feFlood flood-color="#ffdeba"/><feComposite operator="in" in2="b"/><feComposite in="SourceGraphic"/></filter><linearGradient id="c" x1="0.02" y1="0.49" x2="0.981" y2="0.5" gradientUnits="objectBoundingBox"><stop offset="0" stop-color="#ffcf9a"/><stop offset="0.451" stop-color="#a7eff6" stop-opacity="0.2"/><stop offset="0.536" stop-color="#a7eff6" stop-opacity="0.2"/><stop offset="1" stop-color="#ffcf9a"/></linearGradient><filter id="d" x="0" y="0" width="165" height="50.85" filterUnits="userSpaceOnUse"><feOffset input="SourceAlpha"/><feGaussianBlur stdDeviation="1.5" result="e"/><feFlood flood-color="#ffdeba"/><feComposite operator="in" in2="e"/><feComposite in="SourceGraphic"/></filter></defs><g transform="translate(-1218.5 -108.996)"><g class="d" transform="matrix(1, 0, 0, 1, 1218.5, 109)"><path class="a" d="M8-2H140l6,5.713V25.93L140,32H8L2,25.925V4.083Z" transform="translate(8.5 11)"/></g><g class="c" transform="matrix(1, 0, 0, 1, 1218.5, 109)"><path class="b" d="M2962.516-4242.891v-3.613l4.359-4.853v-24.559l-4.359-4.739v-3.582l6.485,7.458v26.278l-6.483,7.607ZM2820.5-4243h0l-.938-.007-6.562-7.708v-25.683l7.5-8.347v3.5l-5.376,5.788v23.751l5.355,6.2h.021v2.5Z" transform="translate(-2808.5 4289.24)"/></g></g></svg>