<svg xmlns="http://www.w3.org/2000/svg" xmlns:xlink="http://www.w3.org/1999/xlink" width="44" height="44" viewBox="0 0 44 44"><defs><style>.a,.e{fill:none;}.a{stroke:#1662a0;}.b{fill:#1797ff;}.c{fill:#ffc340;}.d,.f{stroke:none;}.f{fill:#1797ff;}.g{filter:url(#a);}</style><filter id="a" x="32.349" y="12.99" width="9.687" height="9.687" filterUnits="userSpaceOnUse"><feOffset input="SourceAlpha"/><feGaussianBlur stdDeviation="1" result="b"/><feFlood flood-color="#fec340" flood-opacity="0.502"/><feComposite operator="in" in2="b"/><feComposite in="SourceGraphic"/></filter></defs><g transform="translate(0 0)"><g class="a"><circle class="d" cx="22" cy="22" r="22"/><circle class="e" cx="22" cy="22" r="21.5"/></g><g class="b" transform="translate(5.348 4.962)"><path class="d" d="M 16.84738540649414 32.68811798095703 C 12.61496448516846 32.68811798095703 8.635794639587402 31.04103660583496 5.642874717712402 28.0502872467041 C 2.649084806442261 25.05355644226074 1.000004887580872 21.07418632507324 1.000004887580872 16.84582710266113 C 1.000004887580872 12.61761665344238 2.649084806442261 8.638326644897461 5.64347505569458 5.640996932983398 C 8.635245323181152 2.648287057876587 12.61428451538086 0.999997079372406 16.84738540649414 0.999997079372406 C 19.71000480651855 0.999997079372406 22.51852416992188 1.775257110595703 24.96932411193848 3.241957187652588 C 26.91250801086426 4.403765678405762 28.58426856994629 5.969844341278076 29.86849975585938 7.820602893829346 L 29.59036254882812 7.854766368865967 C 26.66365623474121 3.705548286437988 21.94633102416992 1.247337102890015 16.84738540649414 1.247337102890015 C 12.6798849105835 1.247337102890015 8.762314796447754 2.870067119598389 5.816344738006592 5.816606998443604 C 2.870254755020142 8.763257026672363 1.247764825820923 12.68017673492432 1.247764825820923 16.84582710266113 C 1.247764825820923 21.01141738891602 2.870294809341431 24.92779731750488 5.816464900970459 27.8735179901123 C 8.762675285339355 30.81877708435059 12.68017482757568 32.44077682495117 16.84738540649414 32.44077682495117 C 24.82595062255859 32.44077682495117 31.47737312316895 26.41852378845215 32.34430313110352 18.58246612548828 L 32.59844589233398 18.55121421813965 C 32.20355606079102 22.22540283203125 30.54930877685547 25.62357902526855 27.86857414245605 28.22106742858887 C 24.8978443145752 31.10178756713867 20.9838752746582 32.68811798095703 16.84738540649414 32.68811798095703 Z"/><path class="f" d="M 16.84738540649414 33.68811798095703 C 12.34808444976807 33.68811798095703 8.11761474609375 31.93693733215332 4.93602466583252 28.75764656066895 C 1.753504872322083 25.57199668884277 4.865112259722082e-06 21.3414478302002 4.865112259722082e-06 16.84582710266113 C 4.865112259722082e-06 12.34997749328613 1.753504872322083 8.119887351989746 4.93602466583252 4.934237003326416 C 8.116664886474609 1.752597093582153 12.34714508056641 -2.916870016633766e-06 16.84738540649414 -2.916870016633766e-06 C 19.89125442504883 -2.916870016633766e-06 22.87664413452148 0.824177086353302 25.48284530639648 2.383877038955688 C 28.01263427734375 3.896407127380371 30.1094856262207 6.053657054901123 31.54699516296387 8.621947288513184 L 29.10492515563965 8.921907424926758 C 26.39873504638672 4.742047309875488 21.81642532348633 2.247337102890015 16.84738540649414 2.247337102890015 C 12.94705486297607 2.247337102890015 9.280634880065918 3.765997171401978 6.523514747619629 6.523647308349609 C 3.766394853591919 9.28128719329834 2.247764825820923 12.94706726074219 2.247764825820923 16.84582710266113 C 2.247764825820923 20.74411773681641 3.766394853591919 24.4096565246582 6.523514747619629 27.16635704040527 C 9.280634880065918 29.92258644104004 12.94705486297607 31.44077682495117 16.84738540649414 31.44077682495117 C 24.5782642364502 31.44077682495117 30.97727394104004 25.40032768249512 31.41588401794434 17.68910789489746 L 33.68063354492188 17.41060638427734 C 33.53254318237305 21.79350662231445 31.71395492553711 25.88752746582031 28.56444549560547 28.93923759460449 C 25.40643501281738 32.00155639648438 21.24576568603516 33.68811798095703 16.84738540649414 33.68811798095703 Z"/></g><g class="g" transform="matrix(1, 0, 0, 1, 0, 0)"><circle class="c" cx="1.843" cy="1.843" r="1.843" transform="translate(35.35 15.99)"/></g></g></svg>